<?xml version="1.0" encoding="UTF-8"?>
<!-- Created with EazyDraw for Mac ( http://www.eazydraw.com/ ) -->

<svg
    version="1.1"
    xmlns:dc="http://purl.org/dc/elements/1.1/"
    xmlns:cc="http://creativecommons.org/ns#"
    xmlns:rdf="http://www.w3.org/1999/02/22-rdf-syntax-ns#"
    xmlns:svg="http://www.w3.org/2000/svg"
    xmlns:xlink="http://www.w3.org/1999/xlink"
    xmlns="http://www.w3.org/2000/svg"
    width="1223.69094488"
    height="461.87992126"
    viewBox="0, 0, 978.952755906, 369.503937008"
    preserveAspectRatio="none"
    id="svg2">
   <defs
       id="defs_42608CC0"/>
   <metadata
       id="metadata7">
      <rdf:RDF>
         <cc:Work
             rdf:about="">
            <dc:format>image/svg+xml</dc:format>
            <dc:type rdf:resource="http://purl.org/dc/dcmitype/StillImage"/>
            <dc:title></dc:title>
         </cc:Work>
      </rdf:RDF>
   </metadata>
   <g
       id="layer_Paper"
       style="fill:#000000;fill-opacity:1;stroke:#000000;stroke-opacity:1;fill-rule:nonzero;stroke-linecap:square;stroke-linejoin:miter;stroke-width:1;stroke-miterlimit:10">
      <rect
          style="fill:none"
          id="5EE5252B"
          x="0.5"
          y="0.5"
          width="977.952755906"
          height="368.503937008"/>
   </g>
   <g
       id="layer_Ambika"
       style="fill:#000000;fill-opacity:1;stroke:#000000;stroke-opacity:1;fill-rule:nonzero;stroke-linecap:square;stroke-linejoin:miter;stroke-width:1;stroke-miterlimit:10"/>
   <g
       id="layer_Ambika LEDs"
       style="fill:#000000;fill-opacity:1;stroke:#000000;stroke-opacity:1;fill-rule:nonzero;stroke-linecap:square;stroke-linejoin:miter;stroke-width:1;stroke-miterlimit:10"/>
   <g
       id="layer_Case"
       style="fill:#000000;fill-opacity:1;stroke:#000000;stroke-opacity:1;fill-rule:nonzero;stroke-linecap:square;stroke-linejoin:miter;stroke-width:1;stroke-miterlimit:10"/>
   <g
       id="layer_Parts"
       style="fill:#000000;fill-opacity:1;stroke:#000000;stroke-opacity:1;fill-rule:nonzero;stroke-linecap:square;stroke-linejoin:miter;stroke-width:1;stroke-miterlimit:10">
      <g
          id="62A8A32B">
         <rect
             style="fill:none"
             id="124D6BBC"
             x="493.728346457"
             y="23.177165354"
             width="470.551181102"
             height="158.74015748"/>
         <rect
             style="fill:#6C6C6C;stroke:none"
             id="224D6BBC"
             x="493.728346457"
             y="23.177165354"
             width="11.3385826772"
             height="158.74015748"/>
         <rect
             style="fill:#6C6C6C;stroke:none"
             id="324D6BBC"
             x="952.940944883"
             y="23.177165354"
             width="11.3385826772"
             height="158.74015748"/>
         <rect
             style="fill:#6C6C6C;stroke:none"
             id="424D6BBC"
             x="505.066929134"
             y="169.444881892"
             width="447.874015748"
             height="12.4724409449"/>
      </g>
      <g
          id="093B732B">
         <rect
             style="fill:none"
             id="0B0DD3BC"
             x="14.6732283465"
             y="23.177165354"
             width="470.551181102"
             height="158.74015748"/>
         <rect
             style="fill:#6C6C6C;stroke:none"
             id="B779F6BC"
             x="14.6732283465"
             y="23.177165354"
             width="11.3385826772"
             height="158.74015748"/>
         <rect
             style="fill:#6C6C6C;stroke:none"
             id="CBEC39BC"
             x="473.885826772"
             y="23.177165354"
             width="11.3385826772"
             height="158.74015748"/>
         <rect
             style="fill:#6C6C6C;stroke:none"
             id="6C1679BC"
             x="26.0118110237"
             y="169.444881892"
             width="447.874015748"
             height="12.4724409449"/>
         <path
             style="stroke:none"
             id="9834732B"
             d="M145.724710951,40.185039372 C145.724710951,40.185039372 145.724710951,40.185039372 145.724710951,40.185039372 C148.179586111,41.602362212 149.217138437,45.474560202 147.799815602,47.929435362 C129.374618752,79.842812452 110.949421901,111.756189532 92.5242250508,143.669566622
C91.1069022158,146.124441782 87.2347042208,147.161994102 84.7798290608,145.744671272 C84.7798290608,145.744671272 84.7798290608,145.744671272 84.7798290608,145.744671272 C82.3249538998,144.327348432 81.2874015748,140.455150442 82.7047244088,138.000275282
C101.12992126,106.086898192 119.55511811,74.173521112 137.980314961,42.260144032 C139.397637795,39.805268872 143.26983579,38.767716542 145.724710951,40.185039372 z"/>
         <path
             style="stroke:none"
             id="E7A4732B"
             d="M168.401876306,40.185039372 C168.401876306,40.185039372 168.401876306,40.185039372 168.401876306,40.185039372 C170.856751466,41.602362212 171.894303792,45.474560202 170.476980957,47.929435362 C152.051784107,79.842812452 133.626587256,111.756189532 115.201390406,143.669566622
C113.784067571,146.124441782 109.911869576,147.161994102 107.456994416,145.744671272 C107.456994416,145.744671272 107.456994416,145.744671272 107.456994416,145.744671272 C105.002119255,144.327348432 103.96456693,140.455150442 105.381889764,138.000275282
C123.807086615,106.086898192 142.232283465,74.173521112 160.657480316,42.260144032 C162.07480315,39.805268872 165.947001145,38.767716542 168.401876306,40.185039372 z"/>
         <path
             style="stroke:none"
             id="A415732B"
             d="M191.07904166,40.185039372 C191.07904166,40.185039372 191.07904166,40.185039372 191.07904166,40.185039372 C193.53391682,41.602362212 194.571469146,45.474560202 193.154146311,47.929435362 C174.728949461,79.842812452 156.30375261,111.756189532 137.87855576,143.669566622
C136.461232925,146.124441782 132.58903493,147.161994102 130.13415977,145.744671272 C130.13415977,145.744671272 130.13415977,145.744671272 130.13415977,145.744671272 C127.679284609,144.327348432 126.641732284,140.455150442 128.059055118,138.000275282
C146.484251969,106.086898192 164.909448819,74.173521112 183.33464567,42.260144032 C184.751968504,39.805268872 188.624166499,38.767716542 191.07904166,40.185039372 z"/>
         <path
             style="stroke:none"
             id="8EE5732B"
             d="M213.756207015,40.185039372 C213.756207015,40.185039372 213.756207015,40.185039372 213.756207015,40.185039372 C216.211082175,41.602362212 217.248634501,45.474560202 215.831311666,47.929435362 C197.406114816,79.842812452 178.980917965,111.756189532 160.555721115,143.669566622
C159.13839828,146.124441782 155.266200285,147.161994102 152.811325125,145.744671272 C152.811325125,145.744671272 152.811325125,145.744671272 152.811325125,145.744671272 C150.356449964,144.327348432 149.318897639,140.455150442 150.736220473,138.000275282
C169.161417324,106.086898192 187.586614174,74.173521112 206.011811025,42.260144032 C207.429133859,39.805268872 211.301331854,38.767716542 213.756207015,40.185039372 z"/>
         <path
             style="stroke:none"
             id="DB56732B"
             d="M235.066929135,41.263491142 C235.066929135,41.263491142 235.066929135,41.263491142 235.066929135,41.263491142 C237.521804295,42.680813982 238.559356621,46.553011972 237.142033786,49.007887132 C218.716836936,80.921264222 200.291640085,112.834641302 181.866443235,144.748018392
C180.4491204,147.202893552 176.576922405,148.240445872 174.122047245,146.823123042 C174.122047245,146.823123042 174.122047245,146.823123042 174.122047245,146.823123042 C171.667172084,145.405800202 170.629619759,141.533602212 172.046942593,139.078727052
C190.472139444,107.165349962 208.897336294,75.251972882 227.322533145,43.338595802 C228.739855979,40.883720642 232.612053974,39.846168312 235.066929135,41.263491142 z"/>
         <path
             style="stroke:none"
             id="45C6732B"
             d="M257.74409449,41.263491142 C257.74409449,41.263491142 257.74409449,41.263491142 257.74409449,41.263491142 C260.19896965,42.680813982 261.236521976,46.553011972 259.819199141,49.007887132 C241.394002291,80.921264222 222.96880544,112.834641302 204.54360859,144.748018392
C203.126285755,147.202893552 199.25408776,148.240445872 196.7992126,146.823123042 C196.7992126,146.823123042 196.7992126,146.823123042 196.7992126,146.823123042 C194.344337439,145.405800202 193.306785114,141.533602212 194.724107948,139.078727052
C213.149304799,107.165349962 231.574501649,75.251972882 249.9996985,43.338595802 C251.417021334,40.883720642 255.289219329,39.846168312 257.74409449,41.263491142 z"/>
         <path
             style="stroke:none"
             id="F937732B"
             d="M280.421259843,41.263491142 C280.421259843,41.263491142 280.421259843,41.263491142 280.421259843,41.263491142 C282.876135003,42.680813982 283.913687329,46.553011972 282.496364494,49.007887132 C264.071167644,80.921264222 245.645970793,112.834641302 227.220773943,144.748018392
C225.803451108,147.202893552 221.931253113,148.240445872 219.476377953,146.823123042 C219.476377953,146.823123042 219.476377953,146.823123042 219.476377953,146.823123042 C217.021502792,145.405800202 215.983950467,141.533602212 217.401273301,139.078727052
C235.826470152,107.165349962 254.251667002,75.251972882 272.676863853,43.338595802 C274.094186687,40.883720642 277.966384682,39.846168312 280.421259843,41.263491142 z"/>
         <path
             style="stroke:none"
             id="33B7732B"
             d="M303.098425198,41.263491142 C303.098425198,41.263491142 303.098425198,41.263491142 303.098425198,41.263491142 C305.553300358,42.680813982 306.590852684,46.553011972 305.173529849,49.007887132 C286.748332999,80.921264222 268.323136148,112.834641302 249.897939298,144.748018392
C248.480616463,147.202893552 244.608418468,148.240445872 242.153543308,146.823123042 C242.153543308,146.823123042 242.153543308,146.823123042 242.153543308,146.823123042 C239.698668147,145.405800202 238.661115822,141.533602212 240.078438656,139.078727052
C258.503635507,107.165349962 276.928832357,75.251972882 295.354029208,43.338595802 C296.771352042,40.883720642 300.643550037,39.846168312 303.098425198,41.263491142 z"/>
         <path
             style="stroke:none"
             id="2038732B"
             d="M325.775590552,41.263491142 C325.775590552,41.263491142 325.775590552,41.263491142 325.775590552,41.263491142 C328.230465712,42.680813982 329.268018038,46.553011972 327.850695203,49.007887132 C309.425498353,80.921264222 291.000301502,112.834641302 272.575104652,144.748018392
C271.157781817,147.202893552 267.285583822,148.240445872 264.830708662,146.823123042 C264.830708662,146.823123042 264.830708662,146.823123042 264.830708662,146.823123042 C262.375833501,145.405800202 261.338281176,141.533602212 262.75560401,139.078727052
C281.180800861,107.165349962 299.605997711,75.251972882 318.031194562,43.338595802 C319.448517396,40.883720642 323.320715391,39.846168312 325.775590552,41.263491142 z"/>
         <path
             style="stroke:none"
             id="B3A8732B"
             d="M348.452755907,41.263491142 C348.452755907,41.263491142 348.452755907,41.263491142 348.452755907,41.263491142 C350.907631067,42.680813982 351.945183393,46.553011972 350.527860558,49.007887132 C332.102663708,80.921264222 313.677466857,112.834641302 295.252270007,144.748018392
C293.834947172,147.202893552 289.962749177,148.240445872 287.507874017,146.823123042 C287.507874017,146.823123042 287.507874017,146.823123042 287.507874017,146.823123042 C285.052998856,145.405800202 284.015446531,141.533602212 285.432769365,139.078727052
C303.857966216,107.165349962 322.283163066,75.251972882 340.708359917,43.338595802 C342.125682751,40.883720642 345.997880746,39.846168312 348.452755907,41.263491142 z"/>
         <path
             style="stroke:none"
             id="E819732B"
             d="M371.129921261,41.263491142 C371.129921261,41.263491142 371.129921261,41.263491142 371.129921261,41.263491142 C373.584796421,42.680813982 374.622348747,46.553011972 373.205025912,49.007887132 C354.779829062,80.921264222 336.354632211,112.834641302 317.929435361,144.748018392
C316.512112526,147.202893552 312.639914531,148.240445872 310.185039371,146.823123042 C310.185039371,146.823123042 310.185039371,146.823123042 310.185039371,146.823123042 C307.73016421,145.405800202 306.692611885,141.533602212 308.109934719,139.078727052
C326.53513157,107.165349962 344.96032842,75.251972882 363.385525271,43.338595802 C364.802848105,40.883720642 368.6750461,39.846168312 371.129921261,41.263491142 z"/>
         <path
             style="stroke:none"
             id="0C89732B"
             d="M393.807086616,41.263491142 C393.807086616,41.263491142 393.807086616,41.263491142 393.807086616,41.263491142 C396.261961776,42.680813982 397.299514102,46.553011972 395.882191267,49.007887132 C377.456994417,80.921264222 359.031797566,112.834641302 340.606600716,144.748018392
C339.189277881,147.202893552 335.317079886,148.240445872 332.862204726,146.823123042 C332.862204726,146.823123042 332.862204726,146.823123042 332.862204726,146.823123042 C330.407329565,145.405800202 329.36977724,141.533602212 330.787100074,139.078727052
C349.212296925,107.165349962 367.637493775,75.251972882 386.062690626,43.338595802 C387.48001346,40.883720642 391.352211455,39.846168312 393.807086616,41.263491142 z"/>
         <path
             style="stroke:none"
             id="F00A732B"
             d="M416.484251969,41.263491142 C416.484251969,41.263491142 416.484251969,41.263491142 416.484251969,41.263491142 C418.939127129,42.680813982 419.976679455,46.553011972 418.55935662,49.007887132 C400.13415977,80.921264222 381.708962919,112.834641302 363.283766069,144.748018392
C361.866443234,147.202893552 357.994245239,148.240445872 355.539370079,146.823123042 C355.539370079,146.823123042 355.539370079,146.823123042 355.539370079,146.823123042 C353.084494918,145.405800202 352.046942593,141.533602212 353.464265427,139.078727052
C371.889462278,107.165349962 390.314659128,75.251972882 408.739855979,43.338595802 C410.157178813,40.883720642 414.029376808,39.846168312 416.484251969,41.263491142 z"/>
         <path
             style="stroke:none"
             id="9185732B"
             d="M123.047545596,40.185039372 C123.047545596,40.185039372 123.047545596,40.185039372 123.047545596,40.185039372 C125.502420757,41.602362212 126.539973082,45.474560202 125.122650248,47.929435362 C114.256508515,66.750144932 103.390366783,85.570854492 92.5242250508,104.391564052
C91.1069022158,106.846439212 87.2347042208,107.883991542 84.7798290608,106.466668702 C84.7798290608,106.466668702 84.7798290608,106.466668702 84.7798290608,106.466668702 C82.3249539008,105.049345872 81.2874015748,101.177147872 82.7047244098,98.722272712
C93.5708661418,79.901563152 104.437007874,61.080853592 115.303149606,42.260144022 C116.720472441,39.805268862 120.592670436,38.767716542 123.047545596,40.185039372 z"/>
         <path
             style="stroke:none"
             id="C97A732B"
             d="M417.767904404,80.714919512 C417.767904404,80.714919512 417.767904404,80.714919512 417.767904404,80.714919512 C420.222779565,82.132242352 421.26033189,86.004440342 419.843009056,88.459315502 C408.976867323,107.280025072 398.110725591,126.100734632 387.244583859,144.921444192
C385.827261024,147.376319352 381.955063029,148.413871682 379.500187869,146.996548842 C379.500187869,146.996548842 379.500187869,146.996548842 379.500187869,146.996548842 C377.045312709,145.579226012 376.007760383,141.707028012 377.425083218,139.252152852
C388.29122495,120.431443292 399.157366682,101.610733732 410.023508414,82.790024162 C411.440831249,80.335149002 415.313029244,79.297596682 417.767904404,80.714919512 z"/>
      </g>
      <g
          id="E9DCC32B">
         <rect
             style="fill:none"
             id="3C2DFEBC"
             x="23.1771653544"
             y="193.255905512"
             width="788.031496063"
             height="158.74015748"/>
         <rect
             style="fill:#6C6C6C;stroke:none"
             id="248B31CC"
             x="23.1771653544"
             y="193.255905512"
             width="11.3385826772"
             height="158.74015748"/>
         <rect
             style="fill:#6C6C6C;stroke:none"
             id="348B31CC"
             x="799.870078745"
             y="193.255905512"
             width="11.3385826772"
             height="158.74015748"/>
         <rect
             style="fill:#6C6C6C;stroke:none"
             id="448B31CC"
             x="34.5157480344"
             y="339.523622052"
             width="765.354330709"
             height="12.4724409449"/>
         <rect
             style="fill:#B2B2B2;stroke:none"
             id="354F1E6E"
             x="111.051181105"
             y="235.775590552"
             width="592.440944882"
             height="104.881889764"/>
      </g>
   </g>
   <g
       id="layer_Laser Bounds"
       style="fill:#000000;fill-opacity:1;stroke:#000000;stroke-opacity:1;fill-rule:nonzero;stroke-linecap:square;stroke-linejoin:miter;stroke-width:1;stroke-miterlimit:10"/>
   <g
       id="layer_Laser Paths"
       style="fill:#000000;fill-opacity:1;stroke:#000000;stroke-opacity:1;fill-rule:nonzero;stroke-linecap:square;stroke-linejoin:miter;stroke-width:1;stroke-miterlimit:10"/>
   <g
       id="layer_Laser Fills"
       style="fill:#000000;fill-opacity:1;stroke:#000000;stroke-opacity:1;fill-rule:nonzero;stroke-linecap:square;stroke-linejoin:miter;stroke-width:1;stroke-miterlimit:10"/>
</svg>
