<?xml version="1.0" encoding="UTF-8"?>
<!-- Created with EazyDraw for Mac ( http://www.eazydraw.com/ ) -->

<svg
    version="1.1"
    xmlns:dc="http://purl.org/dc/elements/1.1/"
    xmlns:cc="http://creativecommons.org/ns#"
    xmlns:rdf="http://www.w3.org/1999/02/22-rdf-syntax-ns#"
    xmlns:svg="http://www.w3.org/2000/svg"
    xmlns:xlink="http://www.w3.org/1999/xlink"
    xmlns="http://www.w3.org/2000/svg"
    width="986.289370079"
    height="603.612204724"
    viewBox="0, 0, 789.031496063, 482.889763779"
    preserveAspectRatio="none"
    id="svg2">
   <defs
       id="defs_059D73BE"/>
   <metadata
       id="metadata7">
      <rdf:RDF>
         <cc:Work
             rdf:about="">
            <dc:format>image/svg+xml</dc:format>
            <dc:type rdf:resource="http://purl.org/dc/dcmitype/StillImage"/>
            <dc:title></dc:title>
         </cc:Work>
      </rdf:RDF>
   </metadata>
   <g
       id="layer_Paper"
       style="fill:#000000;fill-opacity:1;stroke:#000000;stroke-opacity:1;fill-rule:nonzero;stroke-linecap:square;stroke-linejoin:miter;stroke-width:1;stroke-miterlimit:10"/>
   <g
       id="layer_Laser Bounds"
       style="fill:#000000;fill-opacity:1;stroke:#000000;stroke-opacity:1;fill-rule:nonzero;stroke-linecap:square;stroke-linejoin:miter;stroke-width:1;stroke-miterlimit:10">
      <rect
          style="fill:none"
          id="373C5CCD"
          x="0.5"
          y="0.5"
          width="788.031496063"
          height="481.889763779"/>
   </g>
   <g
       id="layer_Laser Paths"
       style="fill:#000000;fill-opacity:1;stroke:#000000;stroke-opacity:1;fill-rule:nonzero;stroke-linecap:square;stroke-linejoin:miter;stroke-width:1;stroke-miterlimit:10">
      <path
          style="stroke:none"
          id="C1ED2FED"
          d="M51.76042065,30.477514383 C51.539392004,30.233699279 51.318363358,29.989884175 51.097334712,29.746069071 C51.493821069,29.586563065 52.073730635,29.048808026 52.837080806,28.132787821 C53.600430977,27.216767616 54.020836929,26.510394471 54.098311275,26.013647196
C53.724611489,26.373675038 53.198249566,26.553686258 52.519209712,26.553686258 C51.635090708,26.553686258 50.926438941,26.271137001 50.39323315,25.706030008 C49.860027358,25.140923016 49.593428462,24.363912557 49.593428462,23.374975321
C49.593428462,22.395152714 49.868002539,21.606749139 50.417158931,21.009740946 C50.966315322,20.412732753 51.655598794,20.114233133 52.485030025,20.114233133 C54.681655591,20.114233133 55.7799519,21.57027326 55.7799519,24.482397196
C55.7799519,25.694642841 55.350431455,26.93535309 54.491377681,28.204565165 C53.632323906,29.47377724 52.722013999,30.231419403 51.76042065,30.477514383 z M54.344405025,23.415990946 C54.344405025,21.989551522 53.758798901,21.276342508 52.587569087,21.276342508
C52.095379126,21.276342508 51.706873897,21.462050287 51.422041743,21.833471415 C51.13720959,22.204892543 50.99479565,22.695935809 50.99479565,23.306615946 C50.99479565,23.940082655 51.145184771,24.445936971 51.445967525,24.824194071
C51.746750278,25.202451171 52.134116196,25.391576883 52.6080769,25.391576883 C53.765634771,25.391576883 54.344405025,24.733054823 54.344405025,23.415990946 z"/>
      <path
          style="stroke:none"
          id="A3ED2FED"
          d="M62.700694054,30.443334696 C62.470550824,30.443334696 62.240407595,30.443334696 62.010264366,30.443334696 C60.766123741,27.059545633 59.521983116,23.675756571 58.277842491,20.291967508 C58.783701866,20.291967508 59.289561241,20.291967508 59.795420616,20.291967508
C60.654470095,22.750626363 61.513519574,25.209285217 62.372569054,27.667944071 C63.199717491,25.209285217 64.026865929,22.750626363 64.854014366,20.291967508 C65.34392322,20.291967508 65.833832074,20.291967508 66.323740929,20.291967508
z"/>
      <path
          style="fill:none"
          id="F28C65ED"
          d="M70.03610145,25.2416506121 C70.2171099971,24.8002277131 70.4103005983,24.3209480534 70.5992092147,23.8828231597 C70.7655518655,23.4970342129 70.9592720139,23.0708176614 71.1623169794,22.7027230104 C71.3113465822,22.4325513294 71.5062623464,22.1182813542 71.725424744,21.8982302505
C71.8753533535,21.7476936787 72.0668120023,21.6097088875 72.2885325087,21.6035611194 C72.5083958154,21.5974648468 72.6991819718,21.7225490784 72.8516402733,21.8678762616 C73.0716826434,22.077626321 73.2666542047,22.3841904346 73.414748038,22.6470790909
C73.6186293545,23.0089988557 73.8124016969,23.4304761468 73.9778558027,23.8111725723 C74.1675110984,24.2475539653 74.3607122111,24.7256258251 74.5409635673,25.1659470657 C74.7169092336,25.5957502897 74.9102065919,26.0633037637 75.104071332,26.4853809751
C75.2643703492,26.8343797777 75.4584797262,27.2262185717 75.6671790967,27.5493486929 C75.8108502898,27.7717954111 76.0059036573,28.0319993315 76.2302868613,28.1803448979 C76.4041066543,28.2952616796 76.5912182373,28.3411004254 76.793394626,28.2730983659
C77.0196845046,28.1969857304 77.2138195546,27.9944422752 77.3565023906,27.8121347231 C77.5705896531,27.5385928884 77.7651188459,27.1842535329 77.9196101553,26.8743580881 C78.1181226094,26.4761602508 78.3115985021,26.0268138698 78.48271792,25.6162208984"/>
      <path
          style="stroke:none"
          id="C46877FD"
          d="M140.582523376,20.342519685 C140.803552022,20.586334789 141.024580668,20.830149893 141.245609314,21.073964997 C140.844565642,21.233471003 140.264656077,21.772365354 139.50586322,22.690664216 C138.747070364,23.608963078 138.326664412,24.316475534 138.244632751,24.81322281
C138.622889851,24.448637654 139.149251775,24.26634781 139.823734314,24.26634781 C140.707853318,24.26634781 141.416505085,24.548897068 141.949710876,25.11400406 C142.482916667,25.679111052 142.749515564,26.456121511 142.749515564,27.445058747
C142.749515564,28.424881355 142.474941487,29.213284929 141.925785095,29.810293122 C141.376628704,30.407301316 140.687345232,30.705800935 139.857914001,30.705800935 C137.661288435,30.705800935 136.562992126,29.249760808 136.562992126,26.337636872
C136.562992126,25.125391228 136.992512571,23.884680979 137.851566345,22.615468904 C138.71062012,21.346256828 139.620930027,20.588614665 140.582523376,20.342519685 z M137.998539001,27.404043122 C137.998539001,28.830482546 138.584145124,29.54369156 139.755374939,29.54369156
C140.2475649,29.54369156 140.636070129,29.357983781 140.920902283,28.986562654 C141.205734436,28.615141526 141.348148376,28.124098259 141.348148376,27.513418122 C141.348148376,26.879951413 141.197759255,26.374097097 140.896976501,25.995839997
C140.596193747,25.617582898 140.208827829,25.428457185 139.734867126,25.428457185 C138.577309255,25.428457185 137.998539001,26.086979245 137.998539001,27.404043122 z"/>
      <path
          style="stroke:none"
          id="BA6877FD"
          d="M188.503260335,25.620178703 C188.348312418,25.513082349 188.193364502,25.405985995 188.038416585,25.29888964 C188.038416585,23.683329745 188.038416585,22.067769849 188.038416585,20.452209953 C189.699549398,20.452209953 191.36068221,20.452209953 193.021815023,20.452209953
C193.021815023,20.839579745 193.021815023,21.226949536 193.021815023,21.614319328 C191.793624918,21.614319328 190.565434814,21.614319328 189.33724471,21.614319328 C189.33724471,22.425517245 189.33724471,23.236715161 189.33724471,24.047913078
C189.67448598,23.797260783 190.102867112,23.671936515 190.62240096,23.671936515 C191.552093108,23.671936515 192.261884188,23.949928527 192.751795491,24.50592089 C193.241706795,25.061913254 193.486658773,25.852595451 193.486658773,26.877991203
C193.486658773,29.389071467 192.367854857,30.644592765 190.13021346,30.644592765 C189.195963997,30.644592765 188.421232161,30.384829738 187.80599471,29.86529589 C187.981450439,29.484762036 188.156906168,29.104228182 188.332361898,28.723694328
C188.952156663,29.229556232 189.549155901,29.48248339 190.123377523,29.48248339 C191.408540198,29.48248339 192.051111898,28.680408078 192.051111898,27.07623339 C192.051111898,25.58143425 191.41765469,24.83404589 190.150721273,24.83404589
C189.540041136,24.83404589 188.990892982,25.096087541 188.503260335,25.620178703 z"/>
      <path
          style="stroke:none"
          id="AF6877FD"
          d="M243.970241757,27.780334953 C243.970241757,28.68951464 243.970241757,29.598694328 243.970241757,30.507874015 C243.537299049,30.507874015 243.104356341,30.507874015 242.671413632,30.507874015 C242.671413632,29.598694328 242.671413632,28.68951464 242.671413632,27.780334953
C241.151556861,27.780334953 239.631700091,27.780334953 238.11184332,27.780334953 C238.11184332,27.520569328 238.11184332,27.260803703 238.11184332,27.001038078 C239.905137591,24.81809537 241.698431861,22.635152661 243.491726132,20.452209953
C243.651231341,20.452209953 243.810736549,20.452209953 243.970241757,20.452209953 C243.970241757,22.544006828 243.970241757,24.635803703 243.970241757,26.727600578 C244.307481341,26.727600578 244.644720924,26.727600578 244.981960507,26.727600578
C244.981960507,27.078512036 244.981960507,27.429423495 244.981960507,27.780334953 z M242.671413632,23.179749015 C241.691595924,24.362366203 240.711778216,25.54498339 239.731960507,26.727600578 C240.711778216,26.727600578 241.691595924,26.727600578 242.671413632,26.727600578
z"/>
      <path
          style="stroke:none"
          id="347877FD"
          d="M289.709684117,29.796936515 C289.928434117,29.446025057 290.147184117,29.095113599 290.365934117,28.74420214 C290.812550933,29.236392101 291.377649449,29.48248339 292.061246617,29.48248339 C293.328180035,29.48248339 293.961637242,28.862697922 293.961637242,27.62310839
C293.961637242,27.058001398 293.777068775,26.598858854 293.407926305,26.245666984 C293.038783834,25.892475114 292.548879879,25.715881828 291.938199742,25.715881828 C291.901741409,25.715881828 291.865283075,25.715881828 291.828824742,25.715881828
C291.828824742,25.346741203 291.828824742,24.977600578 291.828824742,24.608459953 C291.849332555,24.608459953 291.869840367,24.608459953 291.89034818,24.608459953 C293.047906051,24.608459953 293.626676305,24.09804839 293.626676305,23.077209953
C293.626676305,22.010798371 293.082085396,21.477600578 291.992887242,21.477600578 C291.400436363,21.477600578 290.928761392,21.675840783 290.57784818,22.07232714 C290.3750487,21.762431307 290.172249221,21.452535474 289.969449742,21.14263964
C290.393279986,20.591204592 291.101931754,20.315491203 292.095426305,20.315491203 C292.97043068,20.315491203 293.683639693,20.549050065 294.235074742,21.016174797 C294.786509791,21.483299528 295.06222318,22.081438078 295.06222318,22.81060839
C295.06222318,23.366600754 294.908416124,23.858783332 294.600797398,24.28717089 C294.293178673,24.715558449 293.93201692,25.002664953 293.517301305,25.148499015 C294.091522926,25.335348908 294.548386846,25.653216823 294.887906773,26.102112297
C295.2274267,26.55100777 295.397184117,27.094459367 295.397184117,27.73248339 C295.397184117,28.662175539 295.103241744,29.379941799 294.51534818,29.885803703 C293.927454615,30.391665607 293.102593072,30.644592765 292.040738805,30.644592765
C291.594121988,30.644592765 291.156626363,30.561423024 290.728238805,30.395081047 C290.299851246,30.228739069 289.960336412,30.029359553 289.709684117,29.796936515 z"/>
      <path
          style="stroke:none"
          id="787877FD"
          d="M343.294514334,30.507874015 C343.294514334,30.416728182 343.294514334,30.325582349 343.294514334,30.234436515 C344.340412771,28.632548495 345.386311209,27.030660474 346.432209646,25.428772453 C347.088462927,24.421605959 347.416584646,23.567122316 347.416584646,22.86529589
C347.416584646,21.940161057 346.894779968,21.477600578 345.851154959,21.477600578 C345.482012488,21.477600578 345.135661785,21.574442057 344.812092459,21.768127922 C344.488523132,21.961813786 344.253824959,22.206765764 344.107990896,22.502991203
C343.814045584,22.261454745 343.520100271,22.019918286 343.226154959,21.778381828 C343.38110365,21.331765012 343.685299827,20.976299816 344.138752615,20.711975578 C344.592205403,20.44765134 345.140214246,20.315491203 345.782795584,20.315491203
C346.744388933,20.315491203 347.496334539,20.53765695 348.038654959,20.981995109 C348.580975378,21.426333268 348.852131521,22.054093918 348.852131521,22.86529589 C348.852131521,23.617252775 348.49210908,24.565159963 347.772053396,25.70904589
C347.022378917,26.898499015 346.272704438,28.08795214 345.523029959,29.277405265 C346.830972667,29.277405265 348.138915375,29.277405265 349.446858084,29.277405265 C349.446858084,29.687561515 349.446858084,30.097717765 349.446858084,30.507874015
z"/>
      <path
          style="stroke:none"
          id="CD7877FD"
          d="M397.250753568,30.507874015 C397.250753568,27.948954745 397.250753568,25.390035474 397.250753568,22.831116203 C396.57171711,23.254944328 395.892680652,23.678772453 395.213644193,24.102600578 C395.213644193,23.676493807 395.213644193,23.250387036 395.213644193,22.824280265
C395.728620726,22.564513342 396.276629569,22.206769523 396.857687162,21.751038078 C397.438744755,21.295306633 397.888772807,20.862368254 398.207784818,20.452209953 C398.344503568,20.452209953 398.481222318,20.452209953 398.617941068,20.452209953
C398.617941068,23.804097974 398.617941068,27.155985995 398.617941068,30.507874015 z"/>
      <path
          style="stroke:none"
          id="658877FD"
          d="M470.928764764,25.415100578 C470.928764764,23.965874582 471.29220514,22.753647121 472.019096795,21.778381828 C472.745988451,20.803116535 473.726935672,20.315491203 474.961967889,20.315491203 C476.351948797,20.315491203 477.417205072,20.764379943 478.15776867,21.66217089
C478.898332269,22.559961838 479.268608514,23.81092589 479.268608514,25.415100578 C479.268608514,27.060291096 478.897192957,28.348852429 478.154350702,29.280823234 C477.411508446,30.21279404 476.347391483,30.678772453 474.961967889,30.678772453
C473.699591786,30.678772453 472.711808695,30.186589875 471.998588983,29.202209953 C471.285369271,28.217830031 470.928764764,26.955472863 470.928764764,25.415100578 z M472.364311639,25.415100578 C472.364311639,26.56354382 472.591034632,27.522844123 473.04448742,28.293030265
C473.497940208,29.063216408 474.137093973,29.448303703 474.961967889,29.448303703 C475.896217352,29.448303703 476.608287054,29.095117131 477.098198358,28.38873339 C477.588109662,27.68234965 477.833061639,26.691148625 477.833061639,25.415100578
C477.833061639,22.835660598 476.876039959,21.545959953 474.961967889,21.545959953 C474.114307401,21.545959953 473.469457079,21.892310656 473.027397577,22.585022453 C472.585338075,23.27773425 472.364311639,24.221084191 472.364311639,25.415100578
z"/>
      <path
          style="stroke:none"
          id="378877FD"
          d="M481.631127003,20.493225578 C482.08685617,20.493225578 482.542585337,20.493225578 482.998314503,20.493225578 C482.998314503,22.778707349 482.998314503,25.06418912 482.998314503,27.34967089 C482.998314503,27.960351027 483.191997462,28.462787409 483.579369191,28.856995109
C483.96674092,29.251202809 484.479431105,29.448303703 485.117455128,29.448303703 C485.791937668,29.448303703 486.322856837,29.256899367 486.710228566,28.874084953 C487.097600295,28.491270539 487.291283253,27.971744484 487.291283253,27.315491203
C487.291283253,25.041402661 487.291283253,22.76731412 487.291283253,20.493225578 C487.74701242,20.493225578 488.202741587,20.493225578 488.658470753,20.493225578 C488.658470753,22.815165682 488.658470753,25.137105786 488.658470753,27.45904589
C488.658470753,28.470769699 488.342881461,29.260312585 487.71169341,29.827698234 C487.080505358,30.395083884 486.220325158,30.678772453 485.131127003,30.678772453 C484.010027648,30.678772453 483.146429513,30.400780441 482.540306691,29.844788078
C481.934183869,29.288795715 481.631127003,28.491277648 481.631127003,27.452209953 z"/>
      <path
          style="stroke:none"
          id="D88877FD"
          d="M495.149895493,21.723694328 C495.149895493,24.651754224 495.149895493,27.57981412 495.149895493,30.507874015 C494.694166326,30.507874015 494.23843716,30.507874015 493.782707993,30.507874015 C493.782707993,27.57981412 493.782707993,24.651754224 493.782707993,21.723694328
C492.720859035,21.723694328 491.659010076,21.723694328 490.597161118,21.723694328 C490.597161118,21.313538078 490.597161118,20.903381828 490.597161118,20.493225578 C493.224439764,20.493225578 495.85171841,20.493225578 498.478997055,20.493225578
C498.478997055,20.903381828 498.478997055,21.313538078 498.478997055,21.723694328 z"/>
      <path
          style="stroke:none"
          id="6D8877FD"
          d="M572.490626538,30.507874015 C572.094142163,28.363668286 571.697657788,26.219462557 571.301173413,24.075256828 C570.572006747,26.265035474 569.84284008,28.45481412 569.113673413,30.644592765 C568.999741122,30.644592765 568.88580883,30.644592765 568.771876538,30.644592765
C568.022202059,28.45481412 567.27252758,26.265035474 566.522853101,24.075256828 C566.135483309,26.219462557 565.748113517,28.363668286 565.360743726,30.507874015 C564.927801017,30.507874015 564.494858309,30.507874015 564.061915601,30.507874015
C564.686264559,27.16965787 565.310613517,23.831441724 565.934962476,20.493225578 C566.142319247,20.493225578 566.349676017,20.493225578 566.557032788,20.493225578 C567.352280184,22.929097974 568.14752758,25.36497037 568.942774976,27.800842765
C569.676498934,25.36497037 570.410222892,22.929097974 571.143946851,20.493225578 C571.349024976,20.493225578 571.554103101,20.493225578 571.759181226,20.493225578 C572.435939038,23.831441724 573.112696851,27.16965787 573.789454663,30.507874015
z"/>
      <path
          style="stroke:none"
          id="EE8877FD"
          d="M575.91271534,30.507874015 C575.91271534,27.16965787 575.91271534,23.831441724 575.91271534,20.493225578 C576.368444507,20.493225578 576.824173673,20.493225578 577.27990284,20.493225578 C577.27990284,23.831441724 577.27990284,27.16965787 577.27990284,30.507874015
z"/>
      <path
          style="stroke:none"
          id="509877FD"
          d="M582.376796329,30.507874015 C581.704595809,30.507874015 581.032395288,30.507874015 580.360194767,30.507874015 C580.360194767,27.16965787 580.360194767,23.831441724 580.360194767,20.493225578 C581.645357443,20.447652433 582.467940363,20.424866203 582.827968204,20.424866203
C584.227063742,20.424866203 585.334474542,20.849829401 586.150233829,21.699768547 C586.965993117,22.549707692 587.373866642,23.681044035 587.373866642,25.093811515 C587.373866642,28.703204562 585.708193195,30.507874015 582.376796329,30.507874015
z M581.727382267,21.723694328 C581.727382267,24.218811515 581.727382267,26.713928703 581.727382267,29.20904589 C582.032722335,29.254619035 582.410973761,29.277405265 582.862147892,29.277405265 C583.819183927,29.277405265 584.571129533,28.918522136 585.118007267,28.200745109
C585.664885001,27.482968083 585.938319767,26.4860705 585.938319767,25.210022453 C585.938319767,22.840218937 584.874202804,21.655334953 582.745936954,21.655334953 C582.61833215,21.655334953 582.278817316,21.678121183 581.727382267,21.723694328
z"/>
      <path
          style="stroke:none"
          id="D19877FD"
          d="M589.975642944,30.507874015 C589.975642944,27.16965787 589.975642944,23.831441724 589.975642944,20.493225578 C590.43137211,20.493225578 590.887101277,20.493225578 591.342830444,20.493225578 C591.342830444,23.831441724 591.342830444,27.16965787 591.342830444,30.507874015
z"/>
      <path
          style="stroke:none"
          id="469877FD"
          d="M687.492033711,30.644592765 C687.261890482,30.644592765 687.031747253,30.644592765 686.801604023,30.644592765 C685.557463398,27.260803703 684.313322773,23.87701464 683.069182148,20.493225578 C683.575041523,20.493225578 684.080900898,20.493225578 684.586760273,20.493225578
C685.445809753,22.951884432 686.304859232,25.410543286 687.163908711,27.86920214 C687.991057148,25.410543286 688.818205586,22.951884432 689.645354023,20.493225578 C690.135262878,20.493225578 690.625171732,20.493225578 691.115080586,20.493225578
z"/>
      <path
          style="stroke:none"
          id="C79877FD"
          d="M692.541075638,25.415100578 C692.541075638,23.965874582 692.904516014,22.753647121 693.631407669,21.778381828 C694.358299324,20.803116535 695.339246546,20.315491203 696.574278763,20.315491203 C697.964259671,20.315491203 699.029515945,20.764379943 699.770079544,21.66217089
C700.510643143,22.559961838 700.880919388,23.81092589 700.880919388,25.415100578 C700.880919388,27.060291096 700.509503831,28.348852429 699.766661575,29.280823234 C699.023819319,30.21279404 697.959702357,30.678772453 696.574278763,30.678772453
C695.311902659,30.678772453 694.324119568,30.186589875 693.610899857,29.202209953 C692.897680145,28.217830031 692.541075638,26.955472863 692.541075638,25.415100578 z M693.976622513,25.415100578 C693.976622513,26.56354382 694.203345506,27.522844123 694.656798294,28.293030265
C695.110251082,29.063216408 695.749404847,29.448303703 696.574278763,29.448303703 C697.508528226,29.448303703 698.220597928,29.095117131 698.710509232,28.38873339 C699.200420535,27.68234965 699.445372513,26.691148625 699.445372513,25.415100578
C699.445372513,22.835660598 698.488350833,21.545959953 696.574278763,21.545959953 C695.726618275,21.545959953 695.081767952,21.892310656 694.63970845,22.585022453 C694.197648948,23.27773425 693.976622513,24.221084191 693.976622513,25.415100578
z"/>
      <path
          style="stroke:none"
          id="399877FD"
          d="M703.243437877,30.507874015 C703.243437877,27.16965787 703.243437877,23.831441724 703.243437877,20.493225578 C703.699167044,20.493225578 704.154896211,20.493225578 704.610625377,20.493225578 C704.610625377,23.421285474 704.610625377,26.34934537 704.610625377,29.277405265
C706.119088919,29.277405265 707.627552461,29.277405265 709.136016002,29.277405265 C709.136016002,29.687561515 709.136016002,30.097717765 709.136016002,30.507874015 z"/>
      <polygon
          style="fill:none"
          id="0F9AFBFD"
          points="541.917322835,28.3000748793 546.511619469,20.3425196845 551.105916103,28.3000748793"/>
      <polygon
          style="fill:none"
          id="1F9AFBFD"
          points="604.279527559,20.3425196847 613.468120827,20.3425196847 608.873824193,28.3000748795"/>
      <path
          style="fill:none;stroke-width:0.566929133858"
          id="E970620E"
          d="M199.063759265,439.532003931 L199.063759265,433.369297171 L203.853810131,439.532003931 L203.853810131,433.369297171 L208.643860997,439.532003931 L208.643860997,433.369297171 L213.433911864,439.532003931
L213.433911864,433.369297171 L218.098242569,439.370256904"/>
      <path
          style="fill:none;stroke-width:0.566929133858"
          id="2A1C970E"
          d="M221.12563074,439.694708415 L221.209961579,439.694708415 L221.209961579,432.983110583 L224.219206629,432.983110583 L224.219206629,439.694708415 L227.228451679,439.694708415 L227.228451679,432.983110583
L230.237696729,432.983110583 L230.237696729,439.694708415 L233.246941779,439.694708415 L233.246941779,432.983110583 L236.256186829,432.983110583 L236.256186829,439.694708415 L238.884154522,439.694708415"/>
      <circle
          style="fill:none;stroke-width:0.566929133858"
          id="BC633B0E"
          cx="219.857914555"
          cy="457.294532759"
          r="4.588268751092"/>
      <line
          style="fill:none;stroke-width:0.566929133858"
          id="1809DB0E"
          x1="215.08487478"
          y1="454.981704929"
          x2="200.540085671"
          y2="452.260053378"/>
      <line
          style="fill:none;stroke-width:0.566929133858"
          id="F1A83C0E"
          x1="214.63824993"
          y1="455.609658866"
          x2="211.806224583"
          y2="456.834243672"/>
      <line
          style="fill:none;stroke-width:0.566929133858"
          id="B2017C0E"
          x1="215.105508456"
          y1="454.817550503"
          x2="212.852722326"
          y2="451.478816178"/>
      <line
          style="fill:none;stroke-width:0.566929133858"
          id="75AF0D0E"
          x1="223.975840456"
          y1="454.355923101"
          x2="230.975959794"
          y2="447.195120312"/>
      <line
          style="fill:none;stroke-width:0.566929133858"
          id="48C45D0E"
          x1="223.954213502"
          y1="453.744330506"
          x2="223.972532311"
          y2="450.30701062"/>
      <line
          style="fill:none;stroke-width:0.566929133858"
          id="87299D0E"
          x1="224.398551888"
          y1="454.42002563"
          x2="227.691213764"
          y2="453.98829456"/>
      <line
          style="fill:none;stroke-width:0.566929133858;stroke-dasharray:1.834489986963,1.834489986963,1.834489986963,1.834489986963,1.834489986963,1.834489986963,1.834489986963,1.834489986963"
          id="3D34ED0E"
          x1="224.503866525"
          y1="459.037055706"
          x2="237.662286069"
          y2="463.236195123"/>
      <line
          style="fill:none;stroke-width:0.566929133858"
          id="5EFA1E0E"
          x1="224.520256664"
          y1="459.031787334"
          x2="225.836916634"
          y2="461.739450208"/>
      <line
          style="fill:none;stroke-width:0.566929133858"
          id="426A3E0E"
          x1="224.225819522"
          y1="459.253644323"
          x2="227.255735972"
          y2="457.600578387"/>
      <path
          style="fill:none;stroke-width:0.566929133858"
          id="5346E31E"
          d="M203.697696671,465.890095522 C203.799398251,465.942972391 203.919694657,465.989022997 204.036458915,465.985428904 C204.140127652,465.982237902 204.225902039,465.940582448 204.297932835,465.866955773 C204.384196613,465.778780778 204.442625675,465.652590779 204.483316001,465.537989024
C204.539105707,465.380860812 204.577596755,465.19874457 204.605704831,465.034757926 C204.639693567,464.836462652 204.665750133,464.620649138 204.688046613,464.420742697 C204.711963778,464.206305475 204.733563531,463.990857667 204.759551074,463.776747652
C204.782793862,463.585251528 204.811710503,463.37718004 204.851122651,463.188265261 C204.882309411,463.038777341 204.926119264,462.871204048 204.990527742,462.732107089 C205.037320158,462.631053889 205.103034209,462.526964501 205.198052683,462.464392227
C205.285270155,462.406957127 205.381803529,462.394418602 205.483331426,462.411771555 C205.608984222,462.433247888 205.737308156,462.500019524 205.843839012,462.567260153 C205.988717624,462.658705292 206.136441532,462.77885018 206.265286417,462.891329585
C206.418635682,463.0252009 206.577453727,463.176700147 206.723855025,463.318089239 C206.879693473,463.468592392 207.031732333,463.617846933 207.189921317,463.765590107 C207.328362316,463.89488933 207.482469539,464.033066317 207.632689307,464.14863973
C207.749746855,464.238699385 207.888539428,464.333859856 208.025006329,464.392124346 C208.12489183,464.434770423 208.238560343,464.464371548 208.347609094,464.442754961 C208.450974284,464.422265019 208.529861719,464.359913108 208.59213602,464.277400522
C208.671577444,464.172141736 208.725155461,464.031871054 208.762434799,463.906705085 C208.812602586,463.738265943 208.84771258,463.546968564 208.8739607,463.37342333 C208.904711927,463.170104816 208.929237595,462.950145748 208.951359725,462.745734709
C208.973886408,462.537585559 208.99712888,462.314149536 209.024614535,462.10658174 C209.048992254,461.922484634 209.080442529,461.721271809 209.124355851,461.540699705 C209.158070154,461.402066091 209.206067275,461.246069315 209.277072514,461.12136599
C209.329723558,461.028897317 209.40104111,460.94252281 209.500969233,460.898941188 C209.598684079,460.856324841 209.703160439,460.86354694 209.80311979,460.892993849 C209.934040999,460.931561776 210.067353221,461.011693329 210.178360862,461.089240417
C210.325916835,461.192319233 210.476729001,461.321181156 210.610099444,461.441778844 C210.76392428,461.580872028 210.924006743,461.735944952 211.072907617,461.880266618 C211.222318825,462.025082921 211.382634968,462.180816039 211.536498892,462.320920723
C211.670872921,462.44327839 211.822351278,462.574022816 211.970464318,462.679619377 C212.082585401,462.759555626 212.216985195,462.842643738 212.349027749,462.885056752 C212.448779758,462.917097811 212.555065345,462.928727277 212.65507664,462.889893568
C212.755904379,462.850742839 212.82858715,462.76873077 212.882838058,462.678159873 C212.955419116,462.556987125 213.004435674,462.403833482 213.038781434,462.267752375 C213.083817116,462.089316795 213.115914136,461.889855229 213.140606894,461.70763581
C213.168648256,461.500705471 213.19208133,461.277786138 213.214477366,461.070185977 C213.236622337,460.864913051 213.260854097,460.644157858 213.290927295,460.439871826 C213.316784893,460.264222194 213.35115971,460.070931622 213.400087761,459.900046449
C213.43664816,459.772356298 213.489137801,459.628984559 213.566974663,459.51991257 C213.627212909,459.435501341 213.704600152,459.368451987 213.807576812,459.343700824 C213.914641179,459.317967153 214.026653463,459.343521214 214.126355643,459.383753102
C214.261845799,459.438426177 214.399653705,459.530864272 214.515547551,459.61859256 C214.665318269,459.731964661 214.818847323,459.868506613 214.956377942,459.996282108 C215.109103957,460.138175181 215.272194351,460.297674816 215.421997147,460.442546176"/>
      <line
          style="fill:none;stroke-width:0.566929133858"
          id="31F4261E"
          x1="215.88463161"
          y1="460.769081392"
          x2="215.3201696"
          y2="462.679722354"/>
      <polyline
          style="fill:none;stroke-width:0.566929133858"
          id="9EFAF12E"
          points="304.617256032,447.864693175 311.798821763,433.853339757 315.74961033,440.016221952 329.478727068,440.090412599 334.591875965,448.018694973"/>
      <path
          style="fill:none;stroke-width:0.566929133858"
          id="EA1A232E"
          d="M305.117614404,464.319494144 L317.689745882,455.044044654 L330.261877359,464.319494144 L334.129644162,461.465938589"/>
      <circle
          style="fill:none;stroke-width:0.566929133858"
          id="E20AB82E"
          cx="358.503239527"
          cy="438.317224778"
          r="1.857479778504"/>
      <circle
          style="fill:none;stroke-width:0.566929133858"
          id="7794C92E"
          cx="365.933157524"
          cy="438.317224778"
          r="1.857479778504"/>
      <circle
          style="fill:none;stroke-width:0.566929133858"
          id="3249D92E"
          cx="373.36307552"
          cy="438.317224778"
          r="1.857479778504"/>
      <circle
          style="fill:none;stroke-width:0.566929133858"
          id="5D18E92E"
          cx="380.792993516"
          cy="438.317224778"
          r="1.857479778504"/>
      <circle
          style="fill:none;stroke-width:0.566929133858"
          id="CEA81A2E"
          cx="358.503239527"
          cy="445.747142774"
          r="1.857479778504"/>
      <circle
          style="fill:none;stroke-width:0.566929133858"
          id="DEA81A2E"
          cx="365.933157524"
          cy="445.747142774"
          r="1.857479778504"/>
      <circle
          style="fill:none;stroke-width:0.566929133858"
          id="EEA81A2E"
          cx="373.36307552"
          cy="445.747142774"
          r="1.857479778504"/>
      <circle
          style="fill:none;stroke-width:0.566929133858"
          id="FEA81A2E"
          cx="380.792993516"
          cy="445.747142774"
          r="1.857479778504"/>
      <circle
          style="fill:none;stroke-width:0.566929133858"
          id="93A54A2E"
          cx="358.503239527"
          cy="453.17706077"
          r="1.857479778504"/>
      <circle
          style="fill:none;stroke-width:0.566929133858"
          id="A3A54A2E"
          cx="365.933157524"
          cy="453.17706077"
          r="1.857479778504"/>
      <circle
          style="fill:none;stroke-width:0.566929133858"
          id="B3A54A2E"
          cx="373.36307552"
          cy="453.17706077"
          r="1.857479778504"/>
      <circle
          style="fill:none;stroke-width:0.566929133858"
          id="C3A54A2E"
          cx="380.792993516"
          cy="453.17706077"
          r="1.857479778504"/>
      <circle
          style="fill:none;stroke-width:0.566929133858"
          id="AD5B4A2E"
          cx="358.503239527"
          cy="460.606978767"
          r="1.857479778504"/>
      <circle
          style="fill:none;stroke-width:0.566929133858"
          id="BD5B4A2E"
          cx="365.933157524"
          cy="460.606978767"
          r="1.857479778504"/>
      <circle
          style="fill:none;stroke-width:0.566929133858"
          id="CD5B4A2E"
          cx="373.36307552"
          cy="460.606978767"
          r="1.857479778504"/>
      <circle
          style="fill:none;stroke-width:0.566929133858"
          id="DD5B4A2E"
          cx="380.792993516"
          cy="460.606978767"
          r="1.857479778504"/>
      <line
          style="fill:none;stroke-width:0.566929133858"
          id="B5F02B2E"
          x1="358.503239527"
          y1="445.747142774"
          x2="373.363075519"
          y2="460.606978766"/>
      <line
          style="fill:none;stroke-width:0.566929133858"
          id="24425B2E"
          x1="365.933157523"
          y1="460.606978766"
          x2="373.363075519"
          y2="438.317224777"/>
      <polyline
          style="fill:none;stroke-width:0.566929133858"
          id="B471953E"
          points="405.988318083,464.685950687 408.893170707,464.685950687 408.893170707,461.781098063 411.79802333,461.781098063 411.79802333,455.971392816 414.702875954,455.971392816 414.702875954,458.876245439 417.607728578,458.876245439 417.607728578,460.328671751 420.512581202,460.328671751 420.512581202,454.518966504 423.417433826,454.518966504 423.417433826,463.233524375 426.322286449,463.233524375 426.322286449,460.328671751 429.227139073,460.328671751 429.227139073,461.781098063 432.131991697,461.781098063 432.131991697,464.685950687 435.036844321,464.685950687"/>
      <g
          id="B1B8FD3E">
         <rect
             style="fill:none;stroke-width:0.566929133858"
             id="93796A3E"
             x="461.301234516"
             y="433.049219115"
             width="5.669291338572"
             height="5.669291338572"/>
         <rect
             style="fill:none;stroke-width:0.566929133858"
             id="BDDFBA3E"
             x="469.805171524"
             y="433.049219115"
             width="5.669291338572"
             height="5.669291338572"/>
         <rect
             style="fill:none;stroke-width:0.566929133858"
             id="7036DA3E"
             x="478.309108532"
             y="433.049219115"
             width="5.669291338572"
             height="5.669291338572"/>
         <rect
             style="fill:none;stroke-width:0.566929133858"
             id="CC6AFA3E"
             x="461.301234516"
             y="441.553156123"
             width="5.669291338572"
             height="5.669291338572"/>
         <rect
             style="fill:none;stroke-width:0.566929133858"
             id="DC6AFA3E"
             x="469.805171524"
             y="441.553156123"
             width="5.669291338572"
             height="5.669291338572"/>
         <rect
             style="fill:none;stroke-width:0.566929133858"
             id="EC6AFA3E"
             x="478.309108532"
             y="441.553156123"
             width="5.669291338572"
             height="5.669291338572"/>
         <path
             style="fill:none;stroke-width:0.566929133858"
             id="E8206C3E"
             d="M458.051727016,434.652837536 C457.842205119,434.652837536 457.632683222,434.652837536 457.423161325,434.652837536 C457.079634697,434.652837536 457.079634697,434.996364164 457.079634697,434.996364164 C457.079634697,435.988671264 457.079634697,435.988671264 457.079634697,437.973285466
C457.079634697,437.973285466 457.079634697,440.303151142 454.749769021,440.303151142 C457.079634697,440.303151142 457.079634697,442.633016818 457.079634697,442.633016818 C457.079634697,443.63797574 457.079634697,443.63797574 457.079634697,445.647893585
C457.079634697,445.647893585 457.079634697,445.991420213 457.423161325,445.991420213 C457.632683222,445.991420213 457.842205119,445.991420213 458.051727016,445.991420213"/>
      </g>
      <g
          id="6089074E">
         <line
             style="fill:none;stroke-width:0.566929133858"
             id="71C7364E"
             x1="457.521215485"
             y1="456.41101142"
             x2="457.521215485"
             y2="464.633312808"/>
         <line
             style="fill:none;stroke-width:0.566929133858"
             id="07BB664E"
             x1="462.8013361"
             y1="456.41101142"
             x2="462.8013361"
             y2="464.633312808"/>
         <line
             style="fill:none;stroke-width:0.566929133858"
             id="83E6864E"
             x1="468.081456714"
             y1="456.41101142"
             x2="468.081456714"
             y2="464.633312808"/>
         <line
             style="fill:none;stroke-width:0.566929133858"
             id="043D864E"
             x1="473.361577329"
             y1="456.41101142"
             x2="473.361577329"
             y2="464.633312808"/>
         <line
             style="fill:none;stroke-width:0.566929133858"
             id="63C1964E"
             x1="478.641697943"
             y1="456.41101142"
             x2="478.641697943"
             y2="464.633312808"/>
         <line
             style="fill:none;stroke-width:0.566929133858"
             id="7356964E"
             x1="483.921818558"
             y1="456.41101142"
             x2="483.921818558"
             y2="464.633312808"/>
      </g>
      <rect
          style="fill:none;stroke-width:0.566929133858"
          id="6CCC884E"
          x="504.415325145"
          y="444.811911778"
          width="35.3762171882"
          height="5.442494952032"/>
      <circle
          style="fill:none;stroke-width:0.566929133858"
          id="22E5194E"
          cx="509.857820097"
          cy="440.049728695"
          r="2.040935914053"/>
      <circle
          style="fill:none;stroke-width:0.566929133858"
          id="6BE2C94E"
          cx="518.021562525"
          cy="440.049728695"
          r="2.040935914053"/>
      <circle
          style="fill:none;stroke-width:0.566929133858"
          id="5E97E94E"
          cx="526.185304953"
          cy="440.049728695"
          r="2.040935914053"/>
      <circle
          style="fill:none;stroke-width:0.566929133858"
          id="229CE94E"
          cx="534.349047381"
          cy="440.049728695"
          r="2.040935914053"/>
      <circle
          style="fill:none;stroke-width:0.566929133858"
          id="AD187A4E"
          cx="509.857820097"
          cy="455.016589813"
          r="2.040935914053"/>
      <circle
          style="fill:none;stroke-width:0.566929133858"
          id="CD187A4E"
          cx="518.021562525"
          cy="455.016589813"
          r="2.040935914053"/>
      <circle
          style="fill:none;stroke-width:0.566929133858"
          id="DD187A4E"
          cx="526.185304953"
          cy="455.016589813"
          r="2.040935914053"/>
      <circle
          style="fill:none;stroke-width:0.566929133858"
          id="ED187A4E"
          cx="534.349047381"
          cy="455.016589813"
          r="2.040935914053"/>
      <g
          id="A0CE49B0">
         <rect
             style="fill:none;stroke-width:0.566929133858"
             id="1F6539B0"
             x="564.213250461"
             y="447.918890054"
             width="4.253960467279"
             height="4.253960467279"/>
         <rect
             style="fill:none;stroke-width:0.566929133858"
             id="2F6539B0"
             x="570.594191162"
             y="447.918890054"
             width="4.253960467279"
             height="4.253960467279"/>
         <rect
             style="fill:none;stroke-width:0.566929133858"
             id="3F6539B0"
             x="576.975131863"
             y="447.918890054"
             width="4.253960467279"
             height="4.253960467279"/>
         <rect
             style="fill:none;stroke-width:0.566929133858"
             id="4F6539B0"
             x="564.213250461"
             y="454.299830756"
             width="4.253960467279"
             height="4.253960467279"/>
         <rect
             style="fill:none;stroke-width:0.566929133858"
             id="5F6539B0"
             x="570.594191162"
             y="454.299830756"
             width="4.253960467279"
             height="4.253960467279"/>
         <rect
             style="fill:none;stroke-width:0.566929133858"
             id="6F6539B0"
             x="576.975131863"
             y="454.299830756"
             width="4.253960467279"
             height="4.253960467279"/>
         <rect
             style="fill:none;stroke-width:0.566929133858"
             id="7F6539B0"
             x="570.594191162"
             y="447.918890054"
             width="4.253960467279"
             height="4.253960467279"/>
      </g>
      <polyline
          style="fill:none;stroke-width:0.566929133858"
          id="E8C4E85E"
          points="561.606358499,434.877676211 561.606358499,461.838965694 584.074099735,461.838965694 584.074099735,441.794505382 577.52832335,434.877676211 561.606358499,434.877676211"/>
      <rect
          style="fill:none;stroke-width:0.566929133858"
          id="02C8D0CF"
          x="435.499255143"
          y="441.122787622"
          width="4.251968503937"
          height="4.251968503937"/>
      <rect
          style="fill:none;stroke-width:0.566929133858"
          id="1329F1CF"
          x="429.829963804"
          y="441.122787622"
          width="4.251968503937"
          height="4.251968503937"/>
      <rect
          style="fill:none;stroke-width:0.566929133858"
          id="143112CF"
          x="424.160672465"
          y="441.122787622"
          width="4.251968503937"
          height="4.251968503937"/>
      <rect
          style="fill:none;stroke-width:0.566929133858"
          id="D89162CF"
          x="418.491381127"
          y="441.122787622"
          width="4.251968503937"
          height="4.251968503937"/>
      <rect
          style="fill:none;stroke-width:0.566929133858"
          id="424A72CF"
          x="412.822089788"
          y="441.122787622"
          width="4.251968503937"
          height="4.251968503937"/>
      <rect
          style="fill:none;stroke-width:0.566929133858"
          id="EE9F82CF"
          x="407.15279845"
          y="441.122787622"
          width="4.251968503937"
          height="4.251968503937"/>
      <rect
          style="fill:none;stroke-width:0.566929133858"
          id="52A3A2CF"
          x="401.483507111"
          y="441.122787622"
          width="4.251968503937"
          height="4.251968503937"/>
      <rect
          style="fill:none;stroke-width:0.566929133858"
          id="5598F2CF"
          x="432.664609473"
          y="435.453496283"
          width="4.251968503937"
          height="4.251968503937"/>
      <rect
          style="fill:none;stroke-width:0.566929133858"
          id="292523CF"
          x="426.995318135"
          y="435.453496283"
          width="4.251968503937"
          height="4.251968503937"/>
      <rect
          style="fill:none;stroke-width:0.566929133858"
          id="C77053CF"
          x="421.326026796"
          y="435.453496283"
          width="4.251968503937"
          height="4.251968503937"/>
      <rect
          style="fill:none;stroke-width:0.566929133858"
          id="6BFD63CF"
          x="409.987444119"
          y="435.453496283"
          width="4.251968503937"
          height="4.251968503937"/>
      <rect
          style="fill:none;stroke-width:0.566929133858"
          id="8D6A83CF"
          x="404.31815278"
          y="435.453496283"
          width="4.251968503937"
          height="4.251968503937"/>
      <rect
          style="fill:none;stroke-width:0.566929133858"
          id="5D999C00"
          x="79.113863112"
          y="406.008156451"
          width="5.669291338572"
          height="5.669291338572"/>
      <rect
          style="fill:none;stroke-width:0.566929133858"
          id="6D999C00"
          x="87.61780012"
          y="406.008156451"
          width="5.669291338572"
          height="5.669291338572"/>
      <rect
          style="fill:none;stroke-width:0.566929133858"
          id="7D999C00"
          x="96.121737128"
          y="406.008156451"
          width="5.669291338572"
          height="5.669291338572"/>
      <rect
          style="fill:none;stroke-width:0.566929133858"
          id="8D999C00"
          x="79.113863112"
          y="414.512093459"
          width="5.669291338572"
          height="5.669291338572"/>
      <rect
          style="fill:none;stroke-width:0.566929133858"
          id="9D999C00"
          x="87.61780012"
          y="414.512093459"
          width="5.669291338572"
          height="5.669291338572"/>
      <rect
          style="fill:none;stroke-width:0.566929133858"
          id="AD999C00"
          x="96.121737128"
          y="414.512093459"
          width="5.669291338572"
          height="5.669291338572"/>
      <path
          style="fill:none;stroke-width:0.566929133858"
          id="3F50C310"
          d="M95.5394453457,401.921432265 C94.529030295,399.095027648 91.4323997773,397.663757252 88.6229274997,398.724600359 C87.2001799314,399.261822941 86.0567327937,400.373903626 85.4700414367,401.790998077"/>
      <line
          style="fill:none;stroke-width:0.566929133858"
          id="5E978510"
          x1="85.470041437"
          y1="401.790998077"
          x2="84.847294772"
          y2="399.663770129"/>
      <line
          style="fill:none;stroke-width:0.566929133858"
          id="5DDE9510"
          x1="85.470041437"
          y1="401.790998077"
          x2="87.352938874"
          y2="401.809863692"/>
      <line
          style="fill:none;stroke-width:0.566929133858"
          id="088CB510"
          x1="95.539445346"
          y1="401.921432264"
          x2="93.690491368"
          y2="401.921432264"/>
      <line
          style="fill:none;stroke-width:0.566929133858"
          id="3A160610"
          x1="95.539445346"
          y1="401.921432264"
          x2="96.265548013"
          y2="399.725472108"/>
      <g
          id="334D1D10">
         <line
             style="fill:none;stroke-width:0.566929133858"
             id="486BDC00"
             x1="196.436709133"
             y1="412.940944882"
             x2="156.129715295"
             y2="412.990685501"/>
         <circle
             style="fill:none;stroke-width:0.566929133858"
             id="0A271310"
             cx="151.172299539"
             cy="412.990685501"
             r="4.957415755397"/>
         <line
             style="fill:none;stroke-width:0.566929133858"
             id="58FB2C10"
             x1="146.214883784"
             y1="412.990685501"
             x2="108.562693385"
             y2="412.940944882"/>
      </g>
      <g
          id="F2666D10">
         <line
             style="fill:none;stroke-width:0.566929133858"
             id="C2666D10"
             x1="681.505024979"
             y1="412.972367554"
             x2="641.198031141"
             y2="413.022108173"/>
         <circle
             style="fill:none;stroke-width:0.566929133858"
             id="D2666D10"
             cx="636.240615385"
             cy="413.022108173"
             r="4.957415755397"/>
         <line
             style="fill:none;stroke-width:0.566929133858"
             id="E2666D10"
             x1="631.28319963"
             y1="413.022108173"
             x2="593.631009231"
             y2="412.972367554"/>
      </g>
      <path
          style="stroke:none"
          id="C974E420"
          d="M690.223774979,411.459536506 C690.946105708,410.737205777 691.668436437,410.014875048 692.390767166,409.292544318 C692.618631749,409.518130256 692.846496333,409.743716193 693.074360916,409.969302131 C692.352030187,410.69163286 691.629699458,411.413963589 690.907368729,412.136294318
C691.62286352,412.854067756 692.338358312,413.571841193 693.053853104,414.289614631 C692.82598852,414.517479214 692.598123937,414.745343798 692.370259354,414.973208381 C691.654764562,414.255434943 690.93926977,413.537661506 690.223774979,412.819888068
C689.501444249,413.542218798 688.77911352,414.264549527 688.056782791,414.986880256 C687.828918208,414.761294318 687.601053624,414.535708381 687.373189041,414.310122443 C688.09551977,413.587791714 688.817850499,412.865460985 689.540181229,412.143130256
C688.808735916,411.411684943 688.077290604,410.680239631 687.345845291,409.948794318 C687.573709874,409.720929735 687.801574458,409.493065152 688.029439041,409.265200568 z"/>
      <path
          style="stroke:none"
          id="5C74E420"
          d="M697.050160655,410.864809943 C696.626330411,410.636944221 696.279979708,410.320215617 696.011098155,409.914614631 C695.742216603,409.509013645 695.607777843,409.089747004 695.607777843,408.656802131 C695.607777843,407.913959875 695.85956569,407.326075129 696.363148937,406.893130256
C696.866732184,406.460185383 697.517279064,406.243716193 698.314809093,406.243716193 C699.176141525,406.243716193 699.843778077,406.460185383 700.31773878,406.893130256 C700.791699484,407.326075129 701.02867628,407.916238498 701.02867628,408.663638068
C701.02867628,409.101140256 700.885123029,409.546611062 700.598012218,410.00006385 C700.310901407,410.453516638 699.978222443,410.787334914 699.599965343,411.001528693 C700.803096359,411.676011232 701.404652843,412.562395598 701.404652843,413.660708381
C701.404652843,414.585843215 701.126660831,415.302470163 700.570668468,415.810610725 C700.014676105,416.318751286 699.251337384,416.572817756 698.280629405,416.572817756 C696.257181788,416.572817756 695.245473155,415.602124338 695.245473155,413.660708381
C695.245473155,413.100158703 695.418648507,412.548731926 695.765004405,412.006411506 C696.111360304,411.464091086 696.539741437,411.083561037 697.050160655,410.864809943 z M698.724965343,410.440981818 C699.344760109,409.857645568 699.654652843,409.253810461 699.654652843,408.629458381
C699.654652843,408.255758596 699.530467887,407.958398288 699.282094249,407.737368537 C699.033720612,407.516338786 698.71129545,407.405825568 698.314809093,407.405825568 C697.42157546,407.405825568 696.974965343,407.81825634 696.974965343,408.643130256
C696.974965343,409.253810393 697.558292843,409.853088254 698.724965343,410.440981818 z M698.116566905,411.459536506 C697.113957726,412.001856926 696.612660655,412.735573547 696.612660655,413.660708381 C696.612660655,414.157455656 696.767607023,414.573304362 697.077504405,414.908266975
C697.387401788,415.243229587 697.788439445,415.410708381 698.280629405,415.410708381 C698.791048624,415.410708381 699.211454576,415.246647522 699.541859874,414.918520881 C699.872265172,414.59039424 700.037465343,414.1711276 700.037465343,413.660708381
C700.037465343,413.29156591 699.923534191,412.944075896 699.695668468,412.618227912 C699.467802745,412.292379929 698.941440822,411.906153322 698.116566905,411.459536506 z"/>
      <g
          id="446FB6A0">
         <rect
             style="stroke:none"
             id="3C2E30A0"
             x="258.220271785"
             y="452.919872551"
             width="2.345864040089"
             height="10.8006309134"/>
         <rect
             style="stroke:none"
             id="4C2E30A0"
             x="261.739067845"
             y="449.974245938"
             width="2.345864040089"
             height="13.7462575262"/>
         <rect
             style="stroke:none"
             id="5C2E30A0"
             x="265.257863906"
             y="451.937997013"
             width="2.345864040089"
             height="11.782506451"/>
         <rect
             style="stroke:none"
             id="6C2E30A0"
             x="268.776659966"
             y="448.010494863"
             width="2.345864040089"
             height="15.7100086013"/>
         <rect
             style="stroke:none"
             id="8C2E30A0"
             x="272.295456026"
             y="454.883623626"
             width="2.345864040089"
             height="8.836879838241"/>
         <rect
             style="stroke:none"
             id="9C2E30A0"
             x="275.814252086"
             y="453.901748088"
             width="2.345864040089"
             height="9.818755375827"/>
         <rect
             style="stroke:none"
             id="AC2E30A0"
             x="279.333048146"
             y="456.847374701"
             width="2.345864040089"
             height="6.873128763069"/>
         <rect
             style="stroke:none"
             id="BC2E30A0"
             x="279.333048146"
             y="451.937997013"
             width="2.345864040089"
             height="3.927502150344"/>
         <rect
             style="stroke:none"
             id="CC2E30A0"
             x="275.814252086"
             y="448.010494863"
             width="2.345864040089"
             height="4.909377687931"/>
         <rect
             style="stroke:none"
             id="DC2E30A0"
             x="272.295456026"
             y="448.992370401"
             width="2.345864040089"
             height="4.909377687931"/>
         <rect
             style="stroke:none"
             id="EC2E30A0"
             x="265.257863906"
             y="446.046743788"
             width="2.345864040089"
             height="4.909377687931"/>
         <rect
             style="stroke:none"
             id="FC2E30A0"
             x="258.220271785"
             y="446.046743788"
             width="2.345864040089"
             height="3.927502150345"/>
         <rect
             style="stroke:none"
             id="0D2E30A0"
             x="261.739067845"
             y="445.06486825"
             width="2.345864040089"
             height="3.927502150345"/>
         <rect
             style="stroke:none"
             id="1D2E30A0"
             x="279.333048146"
             y="446.046743788"
             width="2.345864040089"
             height="2.945626612749"/>
         <rect
             style="stroke:none"
             id="2D2E30A0"
             x="272.295456026"
             y="444.082992713"
             width="2.345864040089"
             height="2.945626612749"/>
         <rect
             style="stroke:none"
             id="3D2E30A0"
             x="265.257863906"
             y="442.119241638"
             width="2.345864040089"
             height="2.945626612749"/>
         <rect
             style="stroke:none"
             id="4D2E30A0"
             x="258.220271785"
             y="441.1373661"
             width="2.345864040089"
             height="2.945626612749"/>
         <rect
             style="stroke:none"
             id="5D2E30A0"
             x="279.333048146"
             y="440.155490562"
             width="2.345864040089"
             height="1.963751075166"/>
         <rect
             style="stroke:none"
             id="6D2E30A0"
             x="268.776659966"
             y="440.155490562"
             width="2.345864040089"
             height="1.963751075166"/>
         <rect
             style="stroke:none"
             id="7D2E30A0"
             x="275.814252086"
             y="438.191739487"
             width="2.345864040089"
             height="1.963751075166"/>
         <rect
             style="stroke:none"
             id="8D2E30A0"
             x="261.739067845"
             y="436.227988412"
             width="2.345864040089"
             height="1.963751075166"/>
         <rect
             style="stroke:none"
             id="9D2E30A0"
             x="272.295456026"
             y="435.246112874"
             width="2.345864040089"
             height="2.352755905512"/>
         <rect
             style="stroke:none"
             id="AD2E30A0"
             x="258.220271785"
             y="433.282361799"
             width="2.345864040089"
             height="1.982834201613"/>
         <rect
             style="stroke:none"
             id="BD2E30A0"
             x="279.333048146"
             y="433.282361799"
             width="2.345864040089"
             height="2.135114644014"/>
      </g>
   </g>
   <g
       id="layer_Laser Fills"
       style="fill:#000000;fill-opacity:1;stroke:#000000;stroke-opacity:1;fill-rule:nonzero;stroke-linecap:square;stroke-linejoin:miter;stroke-width:1;stroke-miterlimit:10">
      <g
          id="229576B0">
         <circle
             style="stroke:none"
             id="A11856B0"
             cx="373.36307552"
             cy="438.317224778"
             r="1.857479778504"/>
         <circle
             style="stroke:none"
             id="B11856B0"
             cx="358.503239527"
             cy="445.747142774"
             r="1.857479778504"/>
         <circle
             style="stroke:none"
             id="C11856B0"
             cx="365.933157524"
             cy="460.606978767"
             r="1.857479778504"/>
         <circle
             style="stroke:none"
             id="D11856B0"
             cx="373.36307552"
             cy="460.606978767"
             r="1.857479778504"/>
      </g>
      <g
          id="9F1394B0">
         <circle
             style="stroke:none"
             id="26C184B0"
             cx="509.857820097"
             cy="440.049728695"
             r="2.040935914053"/>
         <circle
             style="stroke:none"
             id="46C184B0"
             cx="518.021562525"
             cy="440.049728695"
             r="2.040935914053"/>
         <circle
             style="stroke:none"
             id="56C184B0"
             cx="526.185304953"
             cy="440.049728695"
             r="2.040935914053"/>
         <circle
             style="stroke:none"
             id="66C184B0"
             cx="534.349047381"
             cy="440.049728695"
             r="2.040935914053"/>
         <circle
             style="stroke:none"
             id="76C184B0"
             cx="509.857820097"
             cy="455.016589813"
             r="2.040935914053"/>
         <circle
             style="stroke:none"
             id="86C184B0"
             cx="518.021562525"
             cy="455.016589813"
             r="2.040935914053"/>
         <circle
             style="stroke:none"
             id="96C184B0"
             cx="526.185304953"
             cy="455.016589813"
             r="2.040935914053"/>
         <circle
             style="stroke:none"
             id="A6C184B0"
             cx="534.349047381"
             cy="455.016589813"
             r="2.040935914053"/>
      </g>
      <g
          id="D967D6A0">
         <rect
             style="stroke:none"
             id="4867D6A0"
             x="258.220271785"
             y="452.919872551"
             width="2.345864040089"
             height="10.8006309134"/>
         <rect
             style="stroke:none"
             id="5867D6A0"
             x="261.739067845"
             y="449.974245938"
             width="2.345864040089"
             height="13.7462575262"/>
         <rect
             style="stroke:none"
             id="6867D6A0"
             x="265.257863905"
             y="451.937997013"
             width="2.345864040089"
             height="11.782506451"/>
         <rect
             style="stroke:none"
             id="8867D6A0"
             x="268.776659965"
             y="448.010494863"
             width="2.345864040089"
             height="15.7100086013"/>
         <rect
             style="stroke:none"
             id="9867D6A0"
             x="272.295456025"
             y="454.883623626"
             width="2.345864040089"
             height="8.836879838241"/>
         <rect
             style="stroke:none"
             id="A867D6A0"
             x="275.814252086"
             y="453.901748089"
             width="2.345864040089"
             height="9.818755375827"/>
         <rect
             style="stroke:none"
             id="B867D6A0"
             x="279.333048146"
             y="456.847374701"
             width="2.345864040089"
             height="6.873128763069"/>
         <rect
             style="stroke:none"
             id="C867D6A0"
             x="279.333048146"
             y="451.937997014"
             width="2.345864040089"
             height="3.927502150344"/>
         <rect
             style="stroke:none"
             id="D867D6A0"
             x="275.814252086"
             y="448.010494863"
             width="2.345864040089"
             height="4.909377687931"/>
         <rect
             style="stroke:none"
             id="E867D6A0"
             x="272.295456025"
             y="448.992370401"
             width="2.345864040089"
             height="4.909377687931"/>
         <rect
             style="stroke:none"
             id="F867D6A0"
             x="265.257863905"
             y="446.046743788"
             width="2.345864040089"
             height="4.909377687931"/>
         <rect
             style="stroke:none"
             id="0967D6A0"
             x="258.220271785"
             y="446.046743788"
             width="2.345864040089"
             height="3.927502150345"/>
         <rect
             style="stroke:none"
             id="1967D6A0"
             x="261.739067845"
             y="445.064868251"
             width="2.345864040089"
             height="3.927502150345"/>
         <rect
             style="stroke:none"
             id="2967D6A0"
             x="279.333048146"
             y="446.046743788"
             width="2.345864040089"
             height="2.945626612749"/>
         <rect
             style="stroke:none"
             id="3967D6A0"
             x="272.295456025"
             y="444.082992713"
             width="2.345864040089"
             height="2.945626612749"/>
         <rect
             style="stroke:none"
             id="4967D6A0"
             x="265.257863905"
             y="442.119241638"
             width="2.345864040089"
             height="2.945626612749"/>
         <rect
             style="stroke:none"
             id="5967D6A0"
             x="258.220271785"
             y="441.1373661"
             width="2.345864040089"
             height="2.945626612749"/>
         <rect
             style="stroke:none"
             id="6967D6A0"
             x="279.333048146"
             y="440.155490563"
             width="2.345864040089"
             height="1.963751075166"/>
         <rect
             style="stroke:none"
             id="7967D6A0"
             x="268.776659965"
             y="440.155490563"
             width="2.345864040089"
             height="1.963751075166"/>
         <rect
             style="stroke:none"
             id="8967D6A0"
             x="275.814252086"
             y="438.191739487"
             width="2.345864040089"
             height="1.963751075166"/>
         <rect
             style="stroke:none"
             id="9967D6A0"
             x="261.739067845"
             y="436.227988412"
             width="2.345864040089"
             height="1.963751075166"/>
         <rect
             style="stroke:none"
             id="A967D6A0"
             x="272.295456025"
             y="435.246112875"
             width="2.345864040089"
             height="2.352755905512"/>
         <rect
             style="stroke:none"
             id="B967D6A0"
             x="258.220271785"
             y="433.2823618"
             width="2.345864040089"
             height="1.982834201613"/>
         <rect
             style="stroke:none"
             id="C967D6A0"
             x="279.333048146"
             y="433.2823618"
             width="2.345864040089"
             height="2.135114644014"/>
      </g>
      <rect
          style="stroke:none"
          id="1F4B2A20"
          x="87.61780012"
          y="406.008156451"
          width="5.669291338572"
          height="5.669291338572"/>
      <polygon
          id="242349FD"
          points="541.917322835,28.3000748793 546.511619469,20.3425196845 551.105916103,28.3000748793"/>
      <polygon
          id="AF974AFD"
          points="604.279527559,20.3425196847 613.468120827,20.3425196847 608.873824193,28.3000748795"/>
      <rect
          style="stroke-width:0.566929133858"
          id="48E7F7CF"
          x="432.664609473"
          y="435.453496283"
          width="4.251968503937"
          height="4.251968503937"/>
      <rect
          style="stroke-width:0.566929133858"
          id="58E7F7CF"
          x="426.995318135"
          y="435.453496283"
          width="4.251968503937"
          height="4.251968503937"/>
      <rect
          style="stroke-width:0.566929133858"
          id="68E7F7CF"
          x="421.326026796"
          y="435.453496283"
          width="4.251968503937"
          height="4.251968503937"/>
      <rect
          style="stroke-width:0.566929133858"
          id="78E7F7CF"
          x="409.987444119"
          y="435.453496283"
          width="4.251968503937"
          height="4.251968503937"/>
      <rect
          style="stroke-width:0.566929133858"
          id="88E7F7CF"
          x="404.31815278"
          y="435.453496283"
          width="4.251968503937"
          height="4.251968503937"/>
      <rect
          style="stroke:none"
          id="97EFD0C0"
          x="564.213250461"
          y="447.918890054"
          width="4.253960467279"
          height="4.253960467279"/>
      <rect
          style="stroke:none"
          id="A7EFD0C0"
          x="570.594191162"
          y="447.918890054"
          width="4.253960467279"
          height="4.253960467279"/>
      <rect
          style="stroke:none"
          id="B7EFD0C0"
          x="576.975131863"
          y="447.918890054"
          width="4.253960467279"
          height="4.253960467279"/>
      <rect
          style="stroke:none"
          id="C7EFD0C0"
          x="564.213250461"
          y="454.299830756"
          width="4.253960467279"
          height="4.253960467279"/>
      <rect
          style="stroke:none"
          id="D7EFD0C0"
          x="570.594191162"
          y="454.299830756"
          width="4.253960467279"
          height="4.253960467279"/>
      <rect
          style="stroke:none"
          id="E7EFD0C0"
          x="576.975131863"
          y="454.299830756"
          width="4.253960467279"
          height="4.253960467279"/>
      <rect
          style="stroke:none"
          id="F7EFD0C0"
          x="570.594191162"
          y="447.918890054"
          width="4.253960467279"
          height="4.253960467279"/>
      <path
          style="stroke:none"
          id="7590D0BE"
          d="M690.223774979,411.459536506 C690.946105708,410.737205777 691.668436437,410.014875048 692.390767166,409.292544318 C692.618631749,409.518130256 692.846496333,409.743716193 693.074360916,409.969302131 C692.352030187,410.69163286 691.629699458,411.413963589 690.907368729,412.136294318
C691.62286352,412.854067756 692.338358312,413.571841193 693.053853104,414.289614631 C692.82598852,414.517479214 692.598123937,414.745343798 692.370259354,414.973208381 C691.654764562,414.255434943 690.93926977,413.537661506 690.223774979,412.819888068
C689.501444249,413.542218798 688.77911352,414.264549527 688.056782791,414.986880256 C687.828918208,414.761294318 687.601053624,414.535708381 687.373189041,414.310122443 C688.09551977,413.587791714 688.817850499,412.865460985 689.540181229,412.143130256
C688.808735916,411.411684943 688.077290604,410.680239631 687.345845291,409.948794318 C687.573709874,409.720929735 687.801574458,409.493065152 688.029439041,409.265200568 z"/>
      <path
          style="stroke:none"
          id="9590D0BE"
          d="M697.050160655,410.864809943 C696.626330411,410.636944221 696.279979708,410.320215617 696.011098155,409.914614631 C695.742216603,409.509013645 695.607777843,409.089747004 695.607777843,408.656802131 C695.607777843,407.913959875 695.85956569,407.326075129 696.363148937,406.893130256
C696.866732184,406.460185383 697.517279064,406.243716193 698.314809093,406.243716193 C699.176141525,406.243716193 699.843778077,406.460185383 700.31773878,406.893130256 C700.791699484,407.326075129 701.02867628,407.916238498 701.02867628,408.663638068
C701.02867628,409.101140256 700.885123029,409.546611062 700.598012218,410.00006385 C700.310901407,410.453516638 699.978222443,410.787334914 699.599965343,411.001528693 C700.803096359,411.676011232 701.404652843,412.562395598 701.404652843,413.660708381
C701.404652843,414.585843215 701.126660831,415.302470163 700.570668468,415.810610725 C700.014676105,416.318751286 699.251337384,416.572817756 698.280629405,416.572817756 C696.257181788,416.572817756 695.245473155,415.602124338 695.245473155,413.660708381
C695.245473155,413.100158703 695.418648507,412.548731926 695.765004405,412.006411506 C696.111360304,411.464091086 696.539741437,411.083561037 697.050160655,410.864809943 z M698.724965343,410.440981818 C699.344760109,409.857645568 699.654652843,409.253810461 699.654652843,408.629458381
C699.654652843,408.255758596 699.530467887,407.958398288 699.282094249,407.737368537 C699.033720612,407.516338786 698.71129545,407.405825568 698.314809093,407.405825568 C697.42157546,407.405825568 696.974965343,407.81825634 696.974965343,408.643130256
C696.974965343,409.253810393 697.558292843,409.853088254 698.724965343,410.440981818 z M698.116566905,411.459536506 C697.113957726,412.001856926 696.612660655,412.735573547 696.612660655,413.660708381 C696.612660655,414.157455656 696.767607023,414.573304362 697.077504405,414.908266975
C697.387401788,415.243229587 697.788439445,415.410708381 698.280629405,415.410708381 C698.791048624,415.410708381 699.211454576,415.246647522 699.541859874,414.918520881 C699.872265172,414.59039424 700.037465343,414.1711276 700.037465343,413.660708381
C700.037465343,413.29156591 699.923534191,412.944075896 699.695668468,412.618227912 C699.467802745,412.292379929 698.941440822,411.906153322 698.116566905,411.459536506 z"/>
      <path
          style="stroke:none"
          id="B9D212BE"
          d="M51.76042065,30.477514383 C51.539392004,30.233699279 51.318363358,29.989884175 51.097334712,29.746069071 C51.493821069,29.586563065 52.073730635,29.048808026 52.837080806,28.132787821 C53.600430977,27.216767616 54.020836929,26.510394471 54.098311275,26.013647196
C53.724611489,26.373675038 53.198249566,26.553686258 52.519209712,26.553686258 C51.635090708,26.553686258 50.926438941,26.271137001 50.39323315,25.706030008 C49.860027358,25.140923016 49.593428462,24.363912557 49.593428462,23.374975321
C49.593428462,22.395152714 49.868002539,21.606749139 50.417158931,21.009740946 C50.966315322,20.412732753 51.655598794,20.114233133 52.485030025,20.114233133 C54.681655591,20.114233133 55.7799519,21.57027326 55.7799519,24.482397196
C55.7799519,25.694642841 55.350431455,26.93535309 54.491377681,28.204565165 C53.632323906,29.47377724 52.722013999,30.231419403 51.76042065,30.477514383 z M54.344405025,23.415990946 C54.344405025,21.989551522 53.758798901,21.276342508 52.587569087,21.276342508
C52.095379126,21.276342508 51.706873897,21.462050287 51.422041743,21.833471415 C51.13720959,22.204892543 50.99479565,22.695935809 50.99479565,23.306615946 C50.99479565,23.940082655 51.145184771,24.445936971 51.445967525,24.824194071
C51.746750278,25.202451171 52.134116196,25.391576883 52.6080769,25.391576883 C53.765634771,25.391576883 54.344405025,24.733054823 54.344405025,23.415990946 z"/>
      <path
          style="stroke:none"
          id="D9D212BE"
          d="M62.700694054,30.443334696 C62.470550824,30.443334696 62.240407595,30.443334696 62.010264366,30.443334696 C60.766123741,27.059545633 59.521983116,23.675756571 58.277842491,20.291967508 C58.783701866,20.291967508 59.289561241,20.291967508 59.795420616,20.291967508
C60.654470095,22.750626363 61.513519574,25.209285217 62.372569054,27.667944071 C63.199717491,25.209285217 64.026865929,22.750626363 64.854014366,20.291967508 C65.34392322,20.291967508 65.833832074,20.291967508 66.323740929,20.291967508
z"/>
      <path
          style="stroke:none"
          id="E9D212BE"
          d="M140.582523376,20.342519685 C140.803552022,20.586334789 141.024580668,20.830149893 141.245609314,21.073964997 C140.844565642,21.233471003 140.264656077,21.772365354 139.50586322,22.690664216 C138.747070364,23.608963078 138.326664412,24.316475534 138.244632751,24.81322281
C138.622889851,24.448637654 139.149251775,24.26634781 139.823734314,24.26634781 C140.707853318,24.26634781 141.416505085,24.548897068 141.949710876,25.11400406 C142.482916667,25.679111052 142.749515564,26.456121511 142.749515564,27.445058747
C142.749515564,28.424881355 142.474941487,29.213284929 141.925785095,29.810293122 C141.376628704,30.407301316 140.687345232,30.705800935 139.857914001,30.705800935 C137.661288435,30.705800935 136.562992126,29.249760808 136.562992126,26.337636872
C136.562992126,25.125391228 136.992512571,23.884680979 137.851566345,22.615468904 C138.71062012,21.346256828 139.620930027,20.588614665 140.582523376,20.342519685 z M137.998539001,27.404043122 C137.998539001,28.830482546 138.584145124,29.54369156 139.755374939,29.54369156
C140.2475649,29.54369156 140.636070129,29.357983781 140.920902283,28.986562654 C141.205734436,28.615141526 141.348148376,28.124098259 141.348148376,27.513418122 C141.348148376,26.879951413 141.197759255,26.374097097 140.896976501,25.995839997
C140.596193747,25.617582898 140.208827829,25.428457185 139.734867126,25.428457185 C138.577309255,25.428457185 137.998539001,26.086979245 137.998539001,27.404043122 z"/>
      <path
          style="stroke:none"
          id="F9D212BE"
          d="M188.503260335,25.620178703 C188.348312418,25.513082349 188.193364502,25.405985995 188.038416585,25.29888964 C188.038416585,23.683329745 188.038416585,22.067769849 188.038416585,20.452209953 C189.699549398,20.452209953 191.36068221,20.452209953 193.021815023,20.452209953
C193.021815023,20.839579745 193.021815023,21.226949536 193.021815023,21.614319328 C191.793624918,21.614319328 190.565434814,21.614319328 189.33724471,21.614319328 C189.33724471,22.425517245 189.33724471,23.236715161 189.33724471,24.047913078
C189.67448598,23.797260783 190.102867112,23.671936515 190.62240096,23.671936515 C191.552093108,23.671936515 192.261884188,23.949928527 192.751795491,24.50592089 C193.241706795,25.061913254 193.486658773,25.852595451 193.486658773,26.877991203
C193.486658773,29.389071467 192.367854857,30.644592765 190.13021346,30.644592765 C189.195963997,30.644592765 188.421232161,30.384829738 187.80599471,29.86529589 C187.981450439,29.484762036 188.156906168,29.104228182 188.332361898,28.723694328
C188.952156663,29.229556232 189.549155901,29.48248339 190.123377523,29.48248339 C191.408540198,29.48248339 192.051111898,28.680408078 192.051111898,27.07623339 C192.051111898,25.58143425 191.41765469,24.83404589 190.150721273,24.83404589
C189.540041136,24.83404589 188.990892982,25.096087541 188.503260335,25.620178703 z"/>
      <path
          style="stroke:none"
          id="0AD212BE"
          d="M243.970241757,27.780334953 C243.970241757,28.68951464 243.970241757,29.598694328 243.970241757,30.507874015 C243.537299049,30.507874015 243.104356341,30.507874015 242.671413632,30.507874015 C242.671413632,29.598694328 242.671413632,28.68951464 242.671413632,27.780334953
C241.151556861,27.780334953 239.631700091,27.780334953 238.11184332,27.780334953 C238.11184332,27.520569328 238.11184332,27.260803703 238.11184332,27.001038078 C239.905137591,24.81809537 241.698431861,22.635152661 243.491726132,20.452209953
C243.651231341,20.452209953 243.810736549,20.452209953 243.970241757,20.452209953 C243.970241757,22.544006828 243.970241757,24.635803703 243.970241757,26.727600578 C244.307481341,26.727600578 244.644720924,26.727600578 244.981960507,26.727600578
C244.981960507,27.078512036 244.981960507,27.429423495 244.981960507,27.780334953 z M242.671413632,23.179749015 C241.691595924,24.362366203 240.711778216,25.54498339 239.731960507,26.727600578 C240.711778216,26.727600578 241.691595924,26.727600578 242.671413632,26.727600578
z"/>
      <path
          style="stroke:none"
          id="1AD212BE"
          d="M289.709684117,29.796936515 C289.928434117,29.446025057 290.147184117,29.095113599 290.365934117,28.74420214 C290.812550933,29.236392101 291.377649449,29.48248339 292.061246617,29.48248339 C293.328180035,29.48248339 293.961637242,28.862697922 293.961637242,27.62310839
C293.961637242,27.058001398 293.777068775,26.598858854 293.407926305,26.245666984 C293.038783834,25.892475114 292.548879879,25.715881828 291.938199742,25.715881828 C291.901741409,25.715881828 291.865283075,25.715881828 291.828824742,25.715881828
C291.828824742,25.346741203 291.828824742,24.977600578 291.828824742,24.608459953 C291.849332555,24.608459953 291.869840367,24.608459953 291.89034818,24.608459953 C293.047906051,24.608459953 293.626676305,24.09804839 293.626676305,23.077209953
C293.626676305,22.010798371 293.082085396,21.477600578 291.992887242,21.477600578 C291.400436363,21.477600578 290.928761392,21.675840783 290.57784818,22.07232714 C290.3750487,21.762431307 290.172249221,21.452535474 289.969449742,21.14263964
C290.393279986,20.591204592 291.101931754,20.315491203 292.095426305,20.315491203 C292.97043068,20.315491203 293.683639693,20.549050065 294.235074742,21.016174797 C294.786509791,21.483299528 295.06222318,22.081438078 295.06222318,22.81060839
C295.06222318,23.366600754 294.908416124,23.858783332 294.600797398,24.28717089 C294.293178673,24.715558449 293.93201692,25.002664953 293.517301305,25.148499015 C294.091522926,25.335348908 294.548386846,25.653216823 294.887906773,26.102112297
C295.2274267,26.55100777 295.397184117,27.094459367 295.397184117,27.73248339 C295.397184117,28.662175539 295.103241744,29.379941799 294.51534818,29.885803703 C293.927454615,30.391665607 293.102593072,30.644592765 292.040738805,30.644592765
C291.594121988,30.644592765 291.156626363,30.561423024 290.728238805,30.395081047 C290.299851246,30.228739069 289.960336412,30.029359553 289.709684117,29.796936515 z"/>
      <path
          style="stroke:none"
          id="2AD212BE"
          d="M343.294514334,30.507874015 C343.294514334,30.416728182 343.294514334,30.325582349 343.294514334,30.234436515 C344.340412771,28.632548495 345.386311209,27.030660474 346.432209646,25.428772453 C347.088462927,24.421605959 347.416584646,23.567122316 347.416584646,22.86529589
C347.416584646,21.940161057 346.894779968,21.477600578 345.851154959,21.477600578 C345.482012488,21.477600578 345.135661785,21.574442057 344.812092459,21.768127922 C344.488523132,21.961813786 344.253824959,22.206765764 344.107990896,22.502991203
C343.814045584,22.261454745 343.520100271,22.019918286 343.226154959,21.778381828 C343.38110365,21.331765012 343.685299827,20.976299816 344.138752615,20.711975578 C344.592205403,20.44765134 345.140214246,20.315491203 345.782795584,20.315491203
C346.744388933,20.315491203 347.496334539,20.53765695 348.038654959,20.981995109 C348.580975378,21.426333268 348.852131521,22.054093918 348.852131521,22.86529589 C348.852131521,23.617252775 348.49210908,24.565159963 347.772053396,25.70904589
C347.022378917,26.898499015 346.272704438,28.08795214 345.523029959,29.277405265 C346.830972667,29.277405265 348.138915375,29.277405265 349.446858084,29.277405265 C349.446858084,29.687561515 349.446858084,30.097717765 349.446858084,30.507874015
z"/>
      <path
          style="stroke:none"
          id="3AD212BE"
          d="M397.250753568,30.507874015 C397.250753568,27.948954745 397.250753568,25.390035474 397.250753568,22.831116203 C396.57171711,23.254944328 395.892680652,23.678772453 395.213644193,24.102600578 C395.213644193,23.676493807 395.213644193,23.250387036 395.213644193,22.824280265
C395.728620726,22.564513342 396.276629569,22.206769523 396.857687162,21.751038078 C397.438744755,21.295306633 397.888772807,20.862368254 398.207784818,20.452209953 C398.344503568,20.452209953 398.481222318,20.452209953 398.617941068,20.452209953
C398.617941068,23.804097974 398.617941068,27.155985995 398.617941068,30.507874015 z"/>
      <path
          style="stroke:none"
          id="4AD212BE"
          d="M470.928764764,25.415100578 C470.928764764,23.965874582 471.29220514,22.753647121 472.019096795,21.778381828 C472.745988451,20.803116535 473.726935672,20.315491203 474.961967889,20.315491203 C476.351948797,20.315491203 477.417205072,20.764379943 478.15776867,21.66217089
C478.898332269,22.559961838 479.268608514,23.81092589 479.268608514,25.415100578 C479.268608514,27.060291096 478.897192957,28.348852429 478.154350702,29.280823234 C477.411508446,30.21279404 476.347391483,30.678772453 474.961967889,30.678772453
C473.699591786,30.678772453 472.711808695,30.186589875 471.998588983,29.202209953 C471.285369271,28.217830031 470.928764764,26.955472863 470.928764764,25.415100578 z M472.364311639,25.415100578 C472.364311639,26.56354382 472.591034632,27.522844123 473.04448742,28.293030265
C473.497940208,29.063216408 474.137093973,29.448303703 474.961967889,29.448303703 C475.896217352,29.448303703 476.608287054,29.095117131 477.098198358,28.38873339 C477.588109662,27.68234965 477.833061639,26.691148625 477.833061639,25.415100578
C477.833061639,22.835660598 476.876039959,21.545959953 474.961967889,21.545959953 C474.114307401,21.545959953 473.469457079,21.892310656 473.027397577,22.585022453 C472.585338075,23.27773425 472.364311639,24.221084191 472.364311639,25.415100578
z"/>
      <path
          style="stroke:none"
          id="5AD212BE"
          d="M481.631127003,20.493225578 C482.08685617,20.493225578 482.542585337,20.493225578 482.998314503,20.493225578 C482.998314503,22.778707349 482.998314503,25.06418912 482.998314503,27.34967089 C482.998314503,27.960351027 483.191997462,28.462787409 483.579369191,28.856995109
C483.96674092,29.251202809 484.479431105,29.448303703 485.117455128,29.448303703 C485.791937668,29.448303703 486.322856837,29.256899367 486.710228566,28.874084953 C487.097600295,28.491270539 487.291283253,27.971744484 487.291283253,27.315491203
C487.291283253,25.041402661 487.291283253,22.76731412 487.291283253,20.493225578 C487.74701242,20.493225578 488.202741587,20.493225578 488.658470753,20.493225578 C488.658470753,22.815165682 488.658470753,25.137105786 488.658470753,27.45904589
C488.658470753,28.470769699 488.342881461,29.260312585 487.71169341,29.827698234 C487.080505358,30.395083884 486.220325158,30.678772453 485.131127003,30.678772453 C484.010027648,30.678772453 483.146429513,30.400780441 482.540306691,29.844788078
C481.934183869,29.288795715 481.631127003,28.491277648 481.631127003,27.452209953 z"/>
      <path
          style="stroke:none"
          id="6AD212BE"
          d="M495.149895493,21.723694328 C495.149895493,24.651754224 495.149895493,27.57981412 495.149895493,30.507874015 C494.694166326,30.507874015 494.23843716,30.507874015 493.782707993,30.507874015 C493.782707993,27.57981412 493.782707993,24.651754224 493.782707993,21.723694328
C492.720859035,21.723694328 491.659010076,21.723694328 490.597161118,21.723694328 C490.597161118,21.313538078 490.597161118,20.903381828 490.597161118,20.493225578 C493.224439764,20.493225578 495.85171841,20.493225578 498.478997055,20.493225578
C498.478997055,20.903381828 498.478997055,21.313538078 498.478997055,21.723694328 z"/>
      <path
          style="stroke:none"
          id="7AD212BE"
          d="M572.490626538,30.507874015 C572.094142163,28.363668286 571.697657788,26.219462557 571.301173413,24.075256828 C570.572006747,26.265035474 569.84284008,28.45481412 569.113673413,30.644592765 C568.999741122,30.644592765 568.88580883,30.644592765 568.771876538,30.644592765
C568.022202059,28.45481412 567.27252758,26.265035474 566.522853101,24.075256828 C566.135483309,26.219462557 565.748113517,28.363668286 565.360743726,30.507874015 C564.927801017,30.507874015 564.494858309,30.507874015 564.061915601,30.507874015
C564.686264559,27.16965787 565.310613517,23.831441724 565.934962476,20.493225578 C566.142319247,20.493225578 566.349676017,20.493225578 566.557032788,20.493225578 C567.352280184,22.929097974 568.14752758,25.36497037 568.942774976,27.800842765
C569.676498934,25.36497037 570.410222892,22.929097974 571.143946851,20.493225578 C571.349024976,20.493225578 571.554103101,20.493225578 571.759181226,20.493225578 C572.435939038,23.831441724 573.112696851,27.16965787 573.789454663,30.507874015
z"/>
      <path
          style="stroke:none"
          id="8AD212BE"
          d="M575.91271534,30.507874015 C575.91271534,27.16965787 575.91271534,23.831441724 575.91271534,20.493225578 C576.368444507,20.493225578 576.824173673,20.493225578 577.27990284,20.493225578 C577.27990284,23.831441724 577.27990284,27.16965787 577.27990284,30.507874015
z"/>
      <path
          style="stroke:none"
          id="9AD212BE"
          d="M582.376796329,30.507874015 C581.704595809,30.507874015 581.032395288,30.507874015 580.360194767,30.507874015 C580.360194767,27.16965787 580.360194767,23.831441724 580.360194767,20.493225578 C581.645357443,20.447652433 582.467940363,20.424866203 582.827968204,20.424866203
C584.227063742,20.424866203 585.334474542,20.849829401 586.150233829,21.699768547 C586.965993117,22.549707692 587.373866642,23.681044035 587.373866642,25.093811515 C587.373866642,28.703204562 585.708193195,30.507874015 582.376796329,30.507874015
z M581.727382267,21.723694328 C581.727382267,24.218811515 581.727382267,26.713928703 581.727382267,29.20904589 C582.032722335,29.254619035 582.410973761,29.277405265 582.862147892,29.277405265 C583.819183927,29.277405265 584.571129533,28.918522136 585.118007267,28.200745109
C585.664885001,27.482968083 585.938319767,26.4860705 585.938319767,25.210022453 C585.938319767,22.840218937 584.874202804,21.655334953 582.745936954,21.655334953 C582.61833215,21.655334953 582.278817316,21.678121183 581.727382267,21.723694328
z"/>
      <path
          style="stroke:none"
          id="AAD212BE"
          d="M589.975642944,30.507874015 C589.975642944,27.16965787 589.975642944,23.831441724 589.975642944,20.493225578 C590.43137211,20.493225578 590.887101277,20.493225578 591.342830444,20.493225578 C591.342830444,23.831441724 591.342830444,27.16965787 591.342830444,30.507874015
z"/>
      <path
          style="stroke:none"
          id="BAD212BE"
          d="M687.492033711,30.644592765 C687.261890482,30.644592765 687.031747253,30.644592765 686.801604023,30.644592765 C685.557463398,27.260803703 684.313322773,23.87701464 683.069182148,20.493225578 C683.575041523,20.493225578 684.080900898,20.493225578 684.586760273,20.493225578
C685.445809753,22.951884432 686.304859232,25.410543286 687.163908711,27.86920214 C687.991057148,25.410543286 688.818205586,22.951884432 689.645354023,20.493225578 C690.135262878,20.493225578 690.625171732,20.493225578 691.115080586,20.493225578
z"/>
      <path
          style="stroke:none"
          id="CAD212BE"
          d="M692.541075638,25.415100578 C692.541075638,23.965874582 692.904516014,22.753647121 693.631407669,21.778381828 C694.358299324,20.803116535 695.339246546,20.315491203 696.574278763,20.315491203 C697.964259671,20.315491203 699.029515945,20.764379943 699.770079544,21.66217089
C700.510643143,22.559961838 700.880919388,23.81092589 700.880919388,25.415100578 C700.880919388,27.060291096 700.509503831,28.348852429 699.766661575,29.280823234 C699.023819319,30.21279404 697.959702357,30.678772453 696.574278763,30.678772453
C695.311902659,30.678772453 694.324119568,30.186589875 693.610899857,29.202209953 C692.897680145,28.217830031 692.541075638,26.955472863 692.541075638,25.415100578 z M693.976622513,25.415100578 C693.976622513,26.56354382 694.203345506,27.522844123 694.656798294,28.293030265
C695.110251082,29.063216408 695.749404847,29.448303703 696.574278763,29.448303703 C697.508528226,29.448303703 698.220597928,29.095117131 698.710509232,28.38873339 C699.200420535,27.68234965 699.445372513,26.691148625 699.445372513,25.415100578
C699.445372513,22.835660598 698.488350833,21.545959953 696.574278763,21.545959953 C695.726618275,21.545959953 695.081767952,21.892310656 694.63970845,22.585022453 C694.197648948,23.27773425 693.976622513,24.221084191 693.976622513,25.415100578
z"/>
      <path
          style="stroke:none"
          id="DAD212BE"
          d="M703.243437877,30.507874015 C703.243437877,27.16965787 703.243437877,23.831441724 703.243437877,20.493225578 C703.699167044,20.493225578 704.154896211,20.493225578 704.610625377,20.493225578 C704.610625377,23.421285474 704.610625377,26.34934537 704.610625377,29.277405265
C706.119088919,29.277405265 707.627552461,29.277405265 709.136016002,29.277405265 C709.136016002,29.687561515 709.136016002,30.097717765 709.136016002,30.507874015 z"/>
   </g>
</svg>
